<svg xmlns="http://www.w3.org/2000/svg"><defs><font horiz-adv-x="1060"><font-face units-per-em="2048" ascent="1536" descent="-512"/><glyph unicode="ﬁ" horiz-adv-x="819" d="M23 944v47h161v127q0 60 10.5 108.5t28 77.5 40 51 46 30.5 46 15 41 4.5 30.5 0h8q39 0 84-14l-8-43q-41 12-78 12-49 0-85-15.5t-56-37.5-32-53.5-15.5-57.5-3.5-55v-150h436v-991h-55v944h-381v-944h-56v944h-161z"/><glyph unicode="ﬂ" horiz-adv-x="819" d="M23 944v47h161v103q0 59 12.5 106t30 76.5 44 50.5 48 31 49.5 15.5 39.5 6 26.5.5h242v-1380h-55v1331h-193q-46 0-81.5-15t-55-37-31.5-52.5-16-56.5-4-54v-125h221v-47h-221v-944h-56v944h-161z"/><glyph unicode="ﬃ" horiz-adv-x="1296" d="M23 944v47h161v127q0 60 10.5 108.5t28 77.5 40 51 46 30.5 46 15 41 4.5 30.5 0h8q39 0 84-14l-8-43q-41 12-78 12-49 0-85-15.5t-56-37.5-32-53.5-15.5-57.5-3.5-55v-150h422v127q0 60 10.5 108.5t28 77.5 39.5 51 45.5 30.5 46 15 41 4.5 30.5 0h8q39 0 84-14l-8-43q-41 12-78 12-49 0-85-15.5t-56-37.5-32-53.5-15.5-57.5-3.5-55v-150h436v-991h-55v944h-381v-944h-58l3 944h-422v-944h-58l2 944h-161z"/><glyph unicode="fll" horiz-adv-x="1296" d="M23 944v47h161v127q0 60 10.5 108.5t28 77.5 40 51 46 30.5 46 15 41 4.5 30.5 0h8q39 0 84-14l-8-43q-41 12-78 12-49 0-85-15.5t-56-37.5-32-53.5-15.5-57.5-3.5-55v-150h422v103q0 59 12 106t30 76.5 44.5 50.5 47.5 31 49 15.5 39.5 6 26.5.5h242v-1380h-55v1333h-189q-48 0-85-18.5t-56.5-43.5-31.5-57.5-15.5-55.5-3.5-42v-125h221v-47h-221v-944h-58l3 944h-422v-944h-58l2 944h-161z"/><glyph horiz-adv-x="2048"/><glyph horiz-adv-x="2048"/><glyph horiz-adv-x="2048"/><glyph horiz-adv-x="569"/><glyph horiz-adv-x="569"/><glyph horiz-adv-x="569"/><glyph unicode="!" horiz-adv-x="342" d="M143 0h56v152h-56v-152zm2 311v1069h54l-2-1069h-52z"/><glyph unicode=""" horiz-adv-x="458" d="M102 1380h54l-2-557h-48zm201 0h53v-557h-49z"/><glyph unicode="#" horiz-adv-x="1169" d="M51 453v43h230l137 403h-246v43h258l148 438h53l-148-438h357l143 438h55l-143-438h223v-43h-235l-140-403h240v-43h-254l-154-453h-55l154 453h-350l-162-453h-53l157 453h-215zm285 43h352l141 403h-356z"/><glyph unicode="$" horiz-adv-x="1091" d="M61 135l29 45q110-73 222.5-115t254.5-42q84 0 167.5 29t150 90.5 80.5 142.5q50 206-183 303-80 29-251 97.5t-203 80.5q-60 24-103.5 52t-80.5 68.5-51.5 97.5-4.5 128q20 129 138 209.5t294 83.5v170h51v-172q217-10 375-119l-24-45q-99 57-184.5 86t-207.5 29q-91 0-167.5-23t-138.5-79-83-140q-10-57 3.5-105t36-78.5 69.5-60.5 80.5-45 93.5-39l377-147q68-26 115.5-62t70.5-75.5 32.5-75 8.5-70.5q-3-116-66-204t-164.5-133.5-224.5-45.5h-2v-172h-51v174q-261 13-459 162z"/><glyph unicode="%" horiz-adv-x="1640" d="M61 1034q0 171 92 272t242 101q149 0 243.5-101.5t94.5-271.5q0-176-94-278.5t-244-102.5-242 102-92 279zm58 0q0-147 72-237t204-90 204.5 90 72.5 237q0 140-73 231t-204 91-203.5-90.5-72.5-231.5zm254-1034l821 1380h51l-821-1380h-51zm534 358q0 171 92 272t242 101q149 0 243.5-101.5t94.5-271.5q0-176-94-278.5t-244-102.5-242 102-92 279zm58 0q0-147 72-237t204-90 204.5 90 72.5 237q0 140-73 231t-204 91-203.5-90.5-72.5-231.5z"/><glyph unicode="&" horiz-adv-x="1202" d="M82 352q0 146 96.5 254.5t276.5 167.5q-142 110-188 185.5t-46 173.5q0 66 29.5 119.5t77 86 104 49.5 115.5 17q47 0 91-8.5t87-29.5 74.5-52.5 51-81 19.5-111.5q0-117-69.5-190t-259.5-168l424-412q19 39 31 75t17 74 7 57 2 59.5v46.5h53q0-229-65-338 77-84 111-137.5t41.5-89 6.5-99.5h-49q0 16-.5 32.5t-1 31.5-8 36-20.5 44-39 55.5-64 72.5q-77-150-179.5-225.5t-260.5-75.5q-116 0-206.5 31t-146 84.5-84 121-28.5 144.5zm55 8q0-163 115-253.5t295-90.5q74 0 141 27t116 71.5 84 92 58 98.5l-452 432q-53-15-111-46t-115-77.5-94-113.5-37-140zm139 770q0-42 9.5-78t22.5-61 38.5-53.5 44.5-45.5 54-47 55-48q74 37 115 59.5t86 54 67 60.5 36.5 68.5 14.5 88.5q0 94-69.5 162t-202.5 68q-68 0-122-21.5t-85.5-55.5-47.5-73-16-78z"/><glyph unicode="'" horiz-adv-x="258" d="M102 1380h54v-557h-50z"/><glyph unicode="(" horiz-adv-x="630" d="M123 469q0 420 112.5 650.5t313.5 260.5v-43q-172-24-271.5-251t-99.5-615 99.5-615 271.5-251v-43q-202 30-314 258.5t-112 648.5z"/><glyph unicode=")" horiz-adv-x="630" d="M82-395q172 24 271.5 251t99.5 615-99.5 615-271.5 251v43q201-30 313.5-260.5t112.5-650.5-112-648.5-314-258.5v43z"/><glyph unicode="*" horiz-adv-x="774" d="M102 877l252 172-250 174 23 32 240-165-2 290h45l-2-290 235 165 27-32-250-174 252-172-27-37-237 168 2-291h-45l2 291-238-168z"/><glyph unicode="+" horiz-adv-x="1132" d="M82 463v57h448v471h56v-469l465-2v-57l-465 2v-465h-56v463h-448z"/><glyph unicode="," horiz-adv-x="393" d="M61-170l187 363h63l-196-363h-54z"/><glyph unicode="-" horiz-adv-x="833" d="M102 508v57h629v-57h-629z"/><glyph unicode="." horiz-adv-x="268" d="M102 0v119h64v-119h-64z"/><glyph unicode="/" horiz-adv-x="735" d="M102 0l478 1380h53l-477-1380h-54z"/><glyph unicode="0" horiz-adv-x="1167" d="M98 670q0 337 126.5 510.5t353.5 173.5q235 0 363-173t128-511q0-336-129-517.5t-362-181.5q-225 0-352.5 182t-127.5 517zm52 0q0-136 26-251t77-204 134.5-139.5 190.5-50.5q112 0 197 50.5t136 140 76 204 25 250.5q0 133-25 244.5t-76 199-136 137-197 49.5q-107 0-190.5-49.5t-134.5-137-77-199.5-26-244z"/><glyph unicode="1" horiz-adv-x="1167" d="M406 1087l274 244h80v-1331h-55v1278l-265-234z"/><glyph unicode="2" horiz-adv-x="1167" d="M133 0v66q0 47 9.5 86t33 74.5 49 63 73 64 88 64.5 111 77.5 126.5 90.5q29 21 86 61.5t85 61.5 69.5 58 61 66.5 35 71 15.5 86.5q0 136-102 224t-275 88q-116 0-210-47t-150-117l-39 37q41 67 149.5 122.5t249.5 55.5q120 0 216.5-38t158-120.5 61.5-198.5q0-42-10.5-81.5t-26-71-43-64.5-52-56.5-63.5-53.5-66.5-49-72-49-69.5-48l-228-164q-107-77-142-113-73-74-73-161v-31h826v-55h-881z"/><glyph unicode="3" horiz-adv-x="1167" d="M152 121q27 33 32 39 62-58 157-97.5t220-39.5q186 0 286.5 84t100.5 215q0 63-25 119.5t-73 100.5-124.5 69.5-172.5 25.5h-57v55h45q185 0 285 86.5t100 212.5q0 128-97 217.5t-270 89.5q-189 0-328-118l-34 37q49 53 140.5 95t225.5 42q180 2 298-94t118-269q0-247-281-327 76-10 137-45t97.5-82.5 55-100 18.5-104.5q0-116-63-200.5t-159.5-123.5-210.5-37q-266 0-421 150z"/><glyph unicode="4" horiz-adv-x="1167" d="M90 303v62q54 96 115 190t152 215 132 174.5 165.5 209 142.5 177.5h73v-979h209v-49h-209v-303h-57v303h-723zm51 49h672v914q-24-30-115.5-143t-116.5-145-97-125-113-152-104-153-126-196z"/><glyph unicode="5" horiz-adv-x="1167" d="M190 139l39 43q58-70 157-113.5t189-43.5q108 0 190.5 31.5t129 84.5 69.5 115.5 23 132.5q0 76-26 145.5t-74 124-123.5 87-167.5 32.5q-93 0-169.5-28t-117.5-62h-78q19 133 44.5 358t33.5 285h639l-2-53h-588l-69-541q48 41 134.5 65.5t172.5 24.5q91 0 166.5-25.5t126.5-68 86-99 51-118 16-125.5q0-85-27-158.5t-82-132-146.5-92-211.5-33.5q-124 0-221 48.5t-164 115.5z"/><glyph unicode="6" horiz-adv-x="1167" d="M133 643q0 153 26 273.5t72.5 202 113.5 135 146.5 77 174.5 23.5q122 0 215-35l-19-51q-94 32-192 32-240 0-368.5-181.5t-113.5-520.5q19 68 61.5 121t90 82 103 47.5 95 24.5 70.5 6q196 0 312-127.5t116-335.5q0-104-36.5-189.5t-98-140.5-141-85-166.5-30q-85 0-154 24.5t-116 64-82.5 96.5-55.5 115.5-32.5 128-16.5 126-4 117.5zm72-201q20-192 116.5-303.5t268.5-111.5q81 0 147.5 24t110 63 73.5 90.5 43 104.5 13 107q0 56-11.5 110t-39.5 109-70 96-108 66.5-148 25.5q-145 0-257.5-90.5t-131.5-214.5q-6-39-6-76z"/><glyph unicode="7" horiz-adv-x="1167" d="M133 1282v49h899v-57q-243-314-403-616.5t-277-657.5h-65q40 105 53.5 138.5t50.5 127 54 131.5 53.5 121 60.5 127.5 63 119 73.5 128 79 122.5 93 134 103.5 133h-838z"/><glyph unicode="8" horiz-adv-x="1167" d="M125 334q0 31 6.5 66t28.5 83 56 87.5 96.5 73 142.5 46.5q-76 6-133 38.5t-88 81-45.5 101-14.5 109.5q0 133 91 223.5t214 104.5q48 6 105 6l104-6q123-14 214-104.5t91-223.5q0-57-14.5-109.5t-45-101-87.5-81-133-38.5q80-13 142-46.5t96.5-73 56-87.5 28-83 6.5-66q0-75-27.5-139.5t-82-115-144-79.5-204.5-29-204.5 29-144.5 79.5-82.5 115-27.5 139.5zm55-10q0-134 106-217.5t298-83.5 296.5 84.5 104.5 218.5q0 67-24 126t-71.5 106.5-126 75-179.5 28.5q-101-1-180-29t-127-76-72.5-107-24.5-126zm49 696q2-148 88-222.5t267-74.5q180 0 266 74.5t88 222.5q0 122-88 202.5t-266 80.5-266.5-80.5-88.5-202.5z"/><glyph unicode="9" horiz-adv-x="1167" d="M131 909q0 104 36.5 189.5t98 140.5 141 85 166.5 30q85 0 154-24.5t116-64 82.5-96.5 55.5-115.5 32.5-128 16.5-126 4-117.5q0-190-39-329.5t-111.5-221.5-167-121-214.5-39q-122 0-215 35l18 51q94-32 193-32 240 0 368 181.5t113 520.5q-19-68-61.5-121t-90-82-103-47.5-95-24.5-70.5-6q-196 0-312 127.5t-116 335.5zm59 0q0-56 11.5-110t39.5-109 70-96 108-66.5 148-25.5q145 0 257.5 90.5t131.5 214.5q7 46 7 76-20 192-116.5 303.5t-268.5 111.5q-81 0-147.5-24t-110-63-74-90.5-43.5-104.5-13-107z"/><glyph unicode=":" horiz-adv-x="268" d="M102 0v119h64v-119h-64zm0 872v119h64v-119h-64z"/><glyph unicode=";" horiz-adv-x="419" d="M102-190l136 282h75l-161-282h-50zm152 1062v119h63v-119h-63z"/><glyph unicode="<" horiz-adv-x="1167" d="M61 469v55l983 469v-59l-927-438 927-437v-59z"/><glyph unicode="=" horiz-adv-x="1181" d="M102 420v53h977v-53h-977zm0 414v53h977v-53h-977z"/><glyph unicode=">" horiz-adv-x="1167" d="M61 0v59l928 437-928 438v59l983-469v-55z"/><glyph unicode="?" horiz-adv-x="1036" d="M131 1180q33 65 81.5 113t128.5 80 179 32q90 0 167.5-23t137.5-67.5 94.5-117.5 34.5-167q0-187-194-350l-57-47.5-51.5-43.5-40.5-36.5-36.5-36.5-27-33.5-23.5-37.5-13.5-38-10.5-45.5-2-50.5h-49q0 36 5 65.5t11 53 22.5 49 29.5 43 42.5 45.5 49.5 46 63 55.5 73 64.5q76 67 116 144t40 153q0 141-98.5 234.5t-282.5 93.5q-113 0-196-49t-150-152zm313-1180v152h56v-152h-56z"/><glyph unicode="@" horiz-adv-x="1781" d="M102 606q0 161 64 309t171 255.5 255.5 171 310.5 63.5q158 0 289-37.5t220-100.5 150-148 89-178 28-193q0-126-35.5-234.5t-94.5-182-136.5-115.5-161.5-42q-76 0-129.5 59t-52.5 162q-26-47-67.5-81t-78-50-78-25.5-58.5-10.5-29-1q-123 0-196 76t-73 215q0 124 49.5 226t147 164.5 225.5 62.5q22 0 51.5-6.5t66-21 66-46 38.5-74.5l30 129h51q-43-218-100-481-8-24-8-63 0-73 42.5-132t106.5-59q71 0 138 36t120 101.5 85 168.5 32 227-41.5 226.5-111.5 172-164 117.5-197 70-213 22q-196 0-368.5-99.5t-276.5-273.5-104-379q0-224 98.5-394t274.5-260.5 403-90.5q162 0 322 55t261 139l29-39q-288-198-612-198-192 0-349.5 61.5t-261.5 168.5-160.5 250-56.5 308zm436.5-97q-.5-48 15.5-92t42-77 70.5-52.5 101.5-19.5q35 0 78 13.5t88 39.5 82.5 74 52.5 109l45 207q7 51-12 94t-52.5 68.5-70 40-66.5 14.5q-79 0-143.5-26t-108.5-71.5-72-102-42-122.5q-8-49-8.5-97z"/><glyph unicode="A" horiz-adv-x="1292" d="M20 0l596 1380h62l594-1380h-55l-156 352h-832l-151-352h-58zm230 399h788l-391 918z"/><glyph unicode="B" horiz-adv-x="1198" d="M133 0v1380h569q179 0 274-100.5t95-255.5q0-14-2.5-33.5t-9-54-22.5-68-39-67-62-60-88-39.5q80-3 149.5-53t109.5-130.5 40-170.5q0-59-21-118.5t-61-112-108.5-85-153.5-32.5h-670zm55 47h605q140 0 217 88.5t77 212.5q0 62-22 119t-63.5 103.5-109 74-151.5 27.5h-553v-625zm0 674h533q69 6 123.5 29t86 54.5 52 72 28 76 7.5 71.5q0 138-88.5 223.5t-229.5 85.5h-512v-612z"/><glyph unicode="C" horiz-adv-x="1177" d="M82 688q0 149 47.5 279.5t133.5 228 214.5 153.5 282.5 56q226 0 356-49l-14-43q-83 19-169.5 30t-121.5 11q-141 0-256-39t-191-103.5-128-151.5-74.5-180.5-22.5-193.5q0-101 22.5-194t74-180 128-151 191.5-102.5 256-38.5q135 0 293 43l12-45q-132-47-356-47-154 0-282.5 56t-214.5 153.5-133.5 228-47.5 279.5z"/><glyph unicode="D" horiz-adv-x="1335" d="M133 0v1380h465q321 0 498.5-175t177.5-515-177.5-515-498.5-175h-465zm60 51h413q103 0 193 22t168 71.5 133.5 123 87 181 31.5 241.5q0 137-30.5 245t-84.5 181-132 121.5-170 70-202 21.5h-407v-1278z"/><glyph unicode="E" horiz-adv-x="1087" d="M133 0v1380h848v-51h-793v-604h734v-53h-734v-621h807v-51h-862z"/><glyph unicode="F" horiz-adv-x="1001" d="M133 0v1380h797v-51h-740v-604h682v-53h-682v-672h-57z"/><glyph unicode="G" horiz-adv-x="1361" d="M82 690q0 149 51.5 279.5t145 227 234 152.5 308.5 56q227 0 391-80l-22-47q-73 37-164.5 57.5t-151.5 20.5q-151 0-276.5-38.5t-210-103-142.5-151-84-180.5-26-193q0-98 27-192.5t84-180.5 138-150.5 198-103 256-38.5q198 0 376 61v537h-301v53h355v-627q-78-35-206.5-54.5t-240.5-19.5q-168 0-308.5 56t-234 152.5-145 227-51.5 279.5z"/><glyph unicode="H" horiz-adv-x="1302" d="M133 0v1380h55v-639h926v639h55v-1380h-55v690h-926v-690h-55z"/><glyph unicode="I" horiz-adv-x="301" d="M123 0v1380h55v-1380h-55z"/><glyph unicode="J" horiz-adv-x="763" d="M20 29l17 53q6-2 28.5-10t29.5-10.5 27.5-8.5 31-8.5 30.5-7 35.5-6 36-3 41.5-1.5q146 0 209.5 81t66.5 252v1020h58v-1034q0-105-28-181.5t-76.5-117-104.5-58.5-123-18q-127 0-279 58z"/><glyph unicode="K" horiz-adv-x="1091" d="M133 0v1380h55v-886l721 886h66l-492-612 588-768h-70l-552 727-261-307v-420h-55z"/><glyph unicode="L" horiz-adv-x="1011" d="M133 0v1380h57v-1327h740v-53h-797z"/><glyph unicode="M" horiz-adv-x="1708" d="M92 0l66 1380h73l623-1317 625 1317h71l66-1380h-55l-60 1298-616-1298h-62l-614 1296-59-1296h-58z"/><glyph unicode="N" horiz-adv-x="1318" d="M133 0v1380h84l913-1321v1321h56v-1380h-78l-920 1321v-1321h-55z"/><glyph unicode="O" horiz-adv-x="1460" d="M82 690q0 333 174.5 524t474.5 191 473.5-190.5 173.5-524.5-173.5-526.5-473.5-192.5-474.5 192.5-174.5 526.5zm53 0q0-144 38.5-265.5t112-212 188-141.5 257.5-51 257 51 187 141.5 111.5 212 38.5 265.5q0 109-24 207.5t-73 182.5-118.5 145.5-166.5 96-212 34.5q-143 0-257.5-53t-187.5-145-112-211.5-39-256.5z"/><glyph unicode="P" horiz-adv-x="1132" d="M133 0v1380h596q80 0 144.5-26.5t104.5-68.5 66.5-98 37-110 10.5-110q0-13-1.5-32.5t-9.5-58.5-21-75-39.5-77-61.5-70.5-90.5-49.5-123.5-20h-555v-584h-57zm57 633h555q64 0 116.5 24.5t84.5 61.5 53.5 83.5 30 87 8.5 75.5q0 70-19 134t-56 117-99 85-141 32h-533v-700z"/><glyph unicode="Q" horiz-adv-x="1439" d="M82 690q0 333 174.5 524t474.5 191 473.5-190.5 173.5-524.5q0-158-47.5-296t-143-241-226.5-145q73-81 181-123.5t226-42.5h8v-45q-91 0-167.5 17t-133.5 50-90.5 59-73.5 65q-93-17-180-17-300 0-474.5 192.5t-174.5 526.5zm53 0q0-115 24-216.5t73.5-185 119.5-143.5 167-93.5 212-33.5q143 0 257 51t187 142 111.5 213 38.5 266q0 137-38.5 256.5t-111 212-187.5 146-257 53.5-257-53.5-188-146-112-212-39-256.5z"/><glyph unicode="R" horiz-adv-x="1191" d="M133 0v1380h574q91 0 161-25.5t111-65.5 67-95.5 35-107.5 9-109q0-12-1-26.5t-7-47-16.5-62-32-66.5-50.5-66-75.5-55-104.5-40q61-29 101-81.5t77-149.5l152-383h-58l-178 436q-38 84-100.5 123t-167.5 39h-439v-598h-57zm57 651h523q75 0 134.5 23.5t94 58.5 56.5 81 30 85 8 76q0 71-17 132t-54 113-103.5 82.5-156.5 30.5h-515v-682z"/><glyph unicode="S" horiz-adv-x="1091" d="M61 135l29 45q110-73 222.5-115t254.5-42q84 0 167.5 29t150 90.5 80.5 142.5q9 36 9 69 0 154-192 234-80 29-251 97.5t-203 80.5q-60 24-103.5 52t-80.5 68q-38 41-52 98-9 34-8 72 0 27 4 56 20 131 140.5 212t299.5 81q242 0 418-121l-24-45q-99 57-184.5 86t-207.5 29q-91 0-167.5-23t-138.5-79-83-140q-4-24-4-47-1-31 7-58 14-48 36.5-78.5t69.5-60.5 80.5-45 93.5-39l377-147q68-26 115.5-62t70.5-75.5 33-75.5q9-32 8-63v-7q-3-116-66-204t-164.5-133.5-224.5-45.5q-291 0-512 164z"/><glyph unicode="T" horiz-adv-x="1062" d="M20 1329v51h1022v-51h-483v-1329h-55v1329h-484z"/><glyph unicode="U" horiz-adv-x="1363" d="M133 567v813h57v-800q0-291 115.5-423t374.5-132q260 0 377 132t117 423v800h57v-813q0-163-38-279.5t-111.5-185-172-100-229.5-31.5q-130 0-228 31.5t-171 100-110.5 185-37.5 279.5z"/><glyph unicode="V" horiz-adv-x="1132" d="M0 1380h59l506-1319 508 1319h60l-533-1380h-68z"/><glyph unicode="W" horiz-adv-x="1908" d="M20 1380h56l418-1319 434 1264h55l434-1266 416 1321h55l-434-1380h-72l-428 1243-424-1243h-75z"/><glyph unicode="X" horiz-adv-x="1126" d="M20 0l519 680-496 700h66l454-643 455 643h65l-493-700 516-680h-64l-479 625-479-625h-64z"/><glyph unicode="Y" horiz-adv-x="1163" d="M20 1380h64l496-839 495 839h68l-535-893v-487h-57v487z"/><glyph unicode="Z" horiz-adv-x="1163" d="M61 0v53l981 1282h-942v45h1002v-51l-977-1280h936v-49h-1000z"/><glyph unicode="[" horiz-adv-x="473" d="M123-438v1818h268v-45h-213v-1728h213v-45h-268z"/><glyph unicode="\" horiz-adv-x="735" d="M102 1380h54l477-1380h-53z"/><glyph unicode="]" horiz-adv-x="473" d="M82-393h213v1728h-213v45h268v-1818h-268v45z"/><glyph unicode="^" horiz-adv-x="698" d="M82 866l233 514h68l233-514h-57l-211 465-209-465h-57z"/><glyph unicode="_" horiz-adv-x="1296" d="M82-96h1132v-51h-1132v51z"/><glyph unicode="`" horiz-adv-x="356" d="M82 1354h68l124-228h-53z"/><glyph unicode="a" horiz-adv-x="974" d="M61 248q0 88 47 151t144.5 104 232 63 324.5 32v123q0 13-1 27t-8 40.5-19 50-37 50-58.5 45-86.5 31-118 12.5q-128 0-295-64l-20 45q48 19 74.5 29t98 23.5 146.5 13.5h21.5l52.5-4.5 75-13.5 79.5-30.5 74.5-51.5 52.5-81 21.5-114v-729h-53v190q-20-54-66.5-97.5t-102.5-69-113.5-39-108.5-13.5q-96 0-175.5 30.5t-130.5 95-51 151.5zm48 2q0-101 92-167.5t221-66.5q27 0 68 7.5t98.5 30 105 56.5 81.5 96 34 140v207q-350-18-526.5-91.5t-173.5-211.5z"/><glyph unicode="b" horiz-adv-x="1093" d="M123 0v1380h55v-530q136 174 367 174 228 0 352.5-145t124.5-383q0-235-122.5-380t-336.5-145q-24 0-47 1.5t-64.5 7-79 18-76.5 32-70.5 53.5-49.5 77v-160h-53zm55 344q0-79 27.5-139.5t68-95 94.5-56 99-28.5 90-7q94 0 168 31.5t118 80 72.5 114 39 127 10.5 125.5q0 37-4 75t-15.5 87-30 91.5-51.5 85-75.5 72.5-106 49-139.5 19q-45 0-93-9.5t-97-32.5-87.5-55.5-63-82.5-24.5-111v-340z"/><glyph unicode="c" horiz-adv-x="874" d="M72 496q0 246 130.5 387t360.5 141q138 0 250-41l-18-51q-44 14-64.5 20.5t-63.5 13.5-87 7q-120 0-209.5-38.5t-141-107-76-151-24.5-180.5q0-77 15-145t49-129 85.5-104.5 128.5-69 173-25.5q117 0 217 32l16-51q-103-33-250-33-231 0-361 139t-130 386z"/><glyph unicode="d" horiz-adv-x="1093" d="M72 496q0 238 124.5 383t352.5 145q230 0 366-174v530h56v-1380h-53v160q-21-51-64-89t-85.5-56.5-96-29-83-12.5-59.5-2q-214 0-336 145t-122 380zm57 0q0-64 10.5-125.5t39-127 72.5-114 118-80 168-31.5q45 0 90 7t99 28.5 94 56 67.5 95 27.5 139.5v340q0 61-24 111t-62.5 82.5-87.5 55.5-97 32.5-93 9.5q-76 0-139.5-19t-106-49-75.5-72.5-51.5-85-30-91.5-15.5-87-4-75z"/><glyph unicode="e" d="M72 504q0 225 131 372.5t327 147.5q99 0 182.5-32.5t145.5-94 96.5-159 34.5-220.5v-33h-860q0-208 124.5-335t330.5-127q143 0 293 53l16-49q-147-56-338-56-101 0-189.5 37.5t-153.5 105-102.5 168.5-37.5 222zm59 26h803q-1 113-34 200t-89.5 139-127.5 78-153 26q-106 0-198-60t-146.5-162-54.5-221z"/><glyph unicode="f" horiz-adv-x="477" d="M23 944v47h161v127q0 60 10.5 108.5t28 77.5 40 51 46 30.5 45.5 14.5q18 5 33 5h9q18-2 30 0h8q39 0 84-14l-8-43q-41 12-78 12-49 0-85-15.5t-56-37.5-32-53.5-15.5-57.5-3.5-55v-150h221v-47h-221v-944h-58l2 944h-161z"/><glyph unicode="g" horiz-adv-x="1093" d="M72 496q0 259 121.5 393.5t320.5 134.5q36 0 74-4t88.5-17 93-34 82-59.5 61.5-88.5v170h56v-1153q0-84-37-144.5t-100.5-93-135.5-47-155-14.5q-175 0-324 64l19 51q152-66 288-66 78 0 139 10t101.5 25.5 69 41 44 49 23.5 57 10 57 2 57.5v271q-99-185-370-185-217 0-344 132.5t-127 392.5zm51 0q0-79 13-147t44.5-130 80.5-105.5 125-69.5 173-26q28 0 67.5 7.5t90.5 27.5 93.5 49.5 71.5 80 29 112.5v346q0 66-19.5 120.5t-53.5 90-74 61.5-86 40-85 20-75 6q-102 0-180.5-41t-124-110.5-68-153.5-22.5-178z"/><glyph unicode="h" horiz-adv-x="1069" d="M123 0v1380h55v-559q104 203 367 203 188 0 294.5-104t106.5-324v-596h-55v596q0 172-87 275.5t-259 103.5q-26 0-53-3t-64.5-12.5-70.5-25-67-44-58-65.5-39-93-15-124v-608h-55z"/><glyph unicode="i" horiz-adv-x="342" d="M143 0v991h56v-991h-56zm0 1229v151h56v-151h-56z"/><glyph unicode="j" horiz-adv-x="358" d="M-102-446l10 45q8-1 24.5-5.5t33-7 32.5-2.5q56 0 95 25.5t56.5 68 24 80 6.5 78.5v1155h56l-3-1163q0-60-10.5-108t-26-78-39.5-51.5-44.5-31.5-48-15-42.5-6h-10q-11 0-24 1-34 0-90 15zm282 1675v151h56v-151h-56z"/><glyph unicode="k" horiz-adv-x="888" d="M123 0v1380h55v-905l535 516h71l-354-346 451-645h-64l-428 608-211-202v-406h-55z"/><glyph unicode="l" horiz-adv-x="342" d="M143 0v1380h56v-1380h-56z"/><glyph unicode="m" horiz-adv-x="1705" d="M123 0v991h57v-164q92 197 326 197 268 0 356-238 23 69 66.5 118t96 74 102 35.5 100.5 10.5q58 0 107.5-10.5t96.5-38.5 79.5-71 52.5-113 20-160v-631h-55v594q0 192-72.5 286.5t-232.5 94.5q-19 0-45.5-4.5t-67.5-16.5-79-37-72-60.5-55-94.5-21-131v-631h-56v629q0 66-18.5 126t-55.5 110.5-101 80-146 29.5q-55 0-110-18.5t-105-55.5-81.5-102-31.5-148v-651h-55z"/><glyph unicode="n" horiz-adv-x="1073" d="M123 0v991h57v-162q28 60 78 101.5t107 60.5 101.5 26 84.5 7q90 0 159.5-21.5t125-69.5 85-134 29.5-207v-592h-57v592q0 178-82.5 280.5t-253.5 102.5q-49 0-99.5-10t-101.5-33.5-90-59-63.5-90.5-24.5-123v-659h-55z"/><glyph unicode="o" d="M61 498q0 245 126 385.5t343 140.5 343-140.5 126-385.5q0-247-126-388t-343-141-343 141-126 388zm54 0q0-133 45.5-240.5t141.5-174.5 228-67q129 0 225 64.5t143.5 173 47.5 244.5q0 100-28 186.5t-80 151.5-131.5 102-176.5 37q-133 0-228.5-65t-141-171-45.5-241z"/><glyph unicode="p" horiz-adv-x="1093" d="M123-438v1429h53v-164q21 51 63.5 90t86 58.5 95.5 31.5 83.5 14.5 58.5 2.5q142 0 247-69t158.5-189 53.5-274q0-237-124-379t-353-142q-237 0-367 166v-575h-55zm55 741q0-61 24.5-110.5t62.5-80.5 87.5-52.5 97.5-30.5 93-9q76 0 139 18.5t106 48 76 71 51.5 83.5 30 90 15.5 86 4 75q0 64-10.5 126.5t-39 129-72.5 116-118 81.5-168 32q-44 0-90-8t-99.5-30.5-94-58-68-97-27.5-140.5v-340z"/><glyph unicode="q" horiz-adv-x="1093" d="M72 492q0 154 53 273.5t158 189 247 69.5q37 0 80-6t107.5-23.5 119.5-61 81-106.5v164h53v-1429h-56v575q-130-166-366-166-229 0-353 142t-124 379zm57 0q0-37 4-75t15.5-86 30-90 51.5-83.5 76-71 106-48 139-18.5q58 0 118 15.5t117 46.5 93 88.5 36 132.5v340q0 66-18.5 120t-50.5 89.5-70.5 61-82.5 38.5-82 19-74 6q-94 0-168-32t-118-81.5-72.5-116-39-129-10.5-126.5z"/><glyph unicode="r" horiz-adv-x="555" d="M123 0v991h53v-176q26 60 68 103t90.5 64.5 91 31 84.5 10.5h14v-53h-22q-57 0-113.5-22t-104.5-64-78-110-30-152v-623h-53z"/><glyph unicode="s" horiz-adv-x="821" d="M61 80l21 47q45-25 72-38.5t73.5-32 94.5-27.5 100-9q35 0 71.5 6t77 20.5 73.5 43.5 50 70q12 48 12 84v17q-4 42-26.5 73t-46 48-49.5 26l-340 129q-96 45-138 111-32 51-33 123 0 21 3 44 15 92 102 150.5t215 58.5q176 0 305-74l-20-47q-144 70-270 70-135 0-208-56.5t-73-144.5q0-80 52.5-130t164.5-87l231-84q60-22 100-52.5t57-66 22.5-63.5 5.5-62q0-116-91-186t-243-70q-197 0-365 109z"/><glyph unicode="t" horiz-adv-x="557" d="M6 944v47h170v283h53v-283h260v-47h-260v-674q0-39 2-66.5t12.5-66 29-62.5 55-41.5 88.5-17.5q45 0 86 23 1-3 4.5-14.5t6.5-21 3-11.5q-55-21-104-21-25 0-37.5.5t-41.5 6-46.5 15-41 31-36.5 51.5-23 78-10 109v682h-170z"/><glyph unicode="u" horiz-adv-x="1073" d="M123 399v592h53v-592q0-176 84-276t256-100q25 0 53 3t65.5 12.5 72.5 24 70 40 60.5 58 41.5 81 16 106.5v643h55v-991h-57v170q-23-48-61.5-85.5t-78.5-58-86.5-34-80.5-17.5-64-4q-90 0-159.5 21t-125 68-85 132.5-29.5 206.5z"/><glyph unicode="v" horiz-adv-x="991" d="M20 991h60l416-936 415 936h60l-443-991h-65z"/><glyph unicode="w" horiz-adv-x="1585" d="M20 991h58l332-923 356 890h53l357-890 331 923h58l-357-991h-59l-356 891-355-891h-61z"/><glyph unicode="x" horiz-adv-x="868" d="M20 0l379 494-376 497h69l342-452 342 452h68l-377-497 381-494h-70l-344 449-346-449h-68z"/><glyph unicode="y" horiz-adv-x="1013" d="M20 991h64l440-966 406 966h63l-559-1313q-22-53-68.5-86.5t-82.5-43-66-9.5q-27 0-57 6l10 45q16-2 31-2 67 0 116 33t86 113l91 221z"/><glyph unicode="z" horiz-adv-x="901" d="M51 0v45l733 899h-708v47h774v-47l-729-897h704v-47h-774z"/><glyph unicode="{" horiz-adv-x="632" d="M123 453v36q47 13 81 38t54 55.5 31 74 14.5 84.5 3.5 97v321q0 68 14 113.5t41 68 56.5 31 70.5 8.5h62v-41h-53q-72 0-105-42t-33-136v-354q0-46-5-86t-12.5-68.5-19.5-54.5-22-41.5-25-31.5-22.5-22-20.5-15.5-14-10.5v-12q1-1 14-10.5t20.5-15.5 22.5-22 25-31.5 22-41.5 19.5-54.5 12.5-68.5 5-86v-354q0-94 33-136t105-42h53v-41h-62q-41 0-70.5 8.5t-56.5 31-41 68-14 113.5v321q0 56-3.5 97t-14.5 84.5-31 74-54 55.5-81 38z"/><glyph unicode="|" horiz-adv-x="256" d="M102-178v1694h52v-1694h-52z"/><glyph unicode="}" horiz-adv-x="632" d="M82-397h53q72 0 104.5 42t32.5 136v354q0 46 5 86t12.5 68.5 20 54.5 22.5 41.5 24.5 31.5 22.5 22.5 20.5 15.5 14.5 10v12q-2 1-14.5 10t-20.5 15.5-22.5 22.5-24.5 31.5-22.5 41.5-20 54.5-12.5 68.5-5 86v354q0 94-32.5 136t-104.5 42h-53v41h61q41 0 70.5-8.5t57-31 41.5-68 14-113.5v-321q0-56 3.5-97t14.5-84.5 31-74 54-55.5 81-38v-36q-47-13-81-38t-54-55.5-31-74-14.5-84.5-3.5-97v-321q0-68-14-113.5t-41.5-68-57-31-70.5-8.5h-61v41z"/><glyph unicode="~" horiz-adv-x="942" d="M82 485q10 48 24 85t38 73 63.5 56 91.5 20q24 0 51.5-6.5t43-12 50.5-20 45-18.5q96-41 152-41 43 0 74.5 17t50.5 48 28.5 57.5 18.5 63.5h47q-10-48-24-85.5t-38-74.5-63.5-57.5-91.5-20.5q-58 0-154 39-13 5-44.5 19t-48.5 21-44 13.5-51 6.5q-43 0-74.5-16.5t-50.5-47-29-57-18-62.5h-47z"/><glyph unicode="¡" horiz-adv-x="342" d="M143 840v151h56v-151h-56zm2-1278h54v1118h-54v-1118z"/><glyph unicode="¢" horiz-adv-x="874" d="M72 496q0 230 115 368.5t321 157.5v166h51v-164h4q138 0 250-41l-18-51q-44 14-64.5 20.5t-63.5 13.5-87 7q-120 0-209.5-38.5t-141-107-76-151-24.5-180.5q0-77 15-145t49-129 85.5-104.5 128.5-69 173-25.5q117 0 217 32l16-51q-103-33-250-33h-4v-174h-51v176q-206 17-321 154.5t-115 368.5z"/><glyph unicode="£" horiz-adv-x="944" d="M41 784v50h190v108q0 229 114 346t327 117q137 0 235-45l-20-47q-87 41-215 41-188 0-283.5-109.5t-95.5-302.5v-108h405v-50h-403v-731h618v-53h-833v53h153v731h-192z"/><glyph unicode="¤" horiz-adv-x="987" d="M102 256l136 141q-83 89-86 230 3 134 79 221l-129 145 33 31 133-139q36 32 95 54t129 22q138 0 223-76l135 133 33-33-133-131q84-82 84-227 0-136-80-230l131-131-35-33-137 129q-89-73-221-73-123 0-222 73l-131-139zm101 369q0-72 27-129t71-89.5 93-49.5 98-17 98.5 16.5 94.5 50 73 92 28 132.5q0 56-19 103.5t-49 79-69 53.5-79 32-78 10q-49 0-98-16.5t-93-49.5-71-89.5-27-128.5z"/><glyph unicode="¥" horiz-adv-x="1032" d="M20 1430h68l430-795 424 795h70l-463-846h364v-49h-362v-201h362v-45h-362v-289h-64v289h-370v45h370v201h-370v49h370z"/><glyph unicode="¦" horiz-adv-x="290" d="M123-250v744h45v-744h-45zm0 887v743h45v-743h-45z"/><glyph unicode="§" horiz-adv-x="841" d="M82 78l22 51q175-104 328-104 33 0 67.5 6t73 19.5 70.5 41 49 66.5q13 44 13 73 0 64-36.5 106.5t-80.5 57.5l-23 8-305 115q-95 45-135.5 109t-28.5 159q15 105 123 162-73 44-103 103.5t-20 148.5q14 89 99 146t211 57q165 0 294-74l-16-47q-143 68-266 68-129 0-198.5-55t-69.5-136q0-116 141-182l289-107q59-21 97.5-50.5t55-63.5 22-61 5.5-60q0-133-121-203 40-22 66-49t37-57.5 14.5-52.5 3.5-50q0-114-88-182t-236-68q-195 0-354 105zm68 667q0-75 51-124t155-84l230-80q70 33 106 112 13 44 13 74 0 65-36 106t-81 56l-301 115q-66-24-101.5-70.5t-35.5-104.5z"/><glyph unicode="¨" horiz-adv-x="452" d="M82 1202v152h55v-152h-55zm233 0v152h56v-152h-56z"/><glyph unicode="©" horiz-adv-x="1613" d="M82 680q0 197 97.5 364t264.5 264 363 97q197 0 364-97t264-264 97-364q0-147-57.5-278.5t-154.5-226-231-149.5-282-55q-147 0-281 55t-231.5 149.5-155 226-57.5 278.5zm49 0q0-182 90.5-335.5t246-242 339.5-88.5 339.5 88.5 246 242 90.5 335.5q0 137-53.5 262.5t-144 216-216 144-262.5 53.5-262.5-53.5-216-144-144-216-53.5-262.5zm297 18q0-175 107-294t284-119q141 0 213 28l-10 41q-90-26-172-26-98 0-172.5 32t-117 86-63 117-20.5 133 20.5 133.5 63 118 117 87 172.5 32.5q53 0 170-27l12 41q-73 31-213 31-177 0-284-118.5t-107-295.5z"/><glyph unicode="ª" horiz-adv-x="677" d="M82 627v49h514v-49h-514zm0 401q0 109 114 158.5t349 62.5v64q0 11-1.5 23t-12 35.5-29 40.5-56.5 30.5-90 13.5q-24 0-52.5-4.5t-41.5-7-49-12.5-39-11l-20 39q104 45 206 45 1-2 13 0t33.5-2.5 46.5-9 50.5-19 46-33 33.5-51 13-73.5v-447h-51v84q-35-52-104-77t-134-25q-94 0-159.5 47.5t-65.5 128.5zm49 2q0-56 53-92.5t125-36.5q21 0 54.5 7.5t77 25.5 74 58 30.5 95v115q-417-22-414-172z"/><glyph unicode="«" horiz-adv-x="772" d="M102 662l271 473h61l-268-473 270-474h-61zm234 0l270 473h62l-269-473 271-474h-62z"/><glyph unicode="¬" horiz-adv-x="1181" d="M102 692v58h977v-367h-59v309h-918z"/><glyph unicode="­" horiz-adv-x="833" d="M102 508v57h629v-57h-629z"/><glyph unicode="®" horiz-adv-x="1613" d="M82 680q0 197 97.5 364t264.5 264 363 97q197 0 364-97t264-264 97-364q0-147-57.5-278.5t-154.5-226-231-149.5-282-55q-147 0-281 55t-231.5 149.5-155 226-57.5 278.5zm49 0q0-182 90.5-335.5t246-242 339.5-88.5 339.5 88.5 246 242 90.5 335.5q0 137-53.5 262.5t-144 216-216 144-262.5 53.5-262.5-53.5-216-144-144-216-53.5-262.5zm399-391v796h336q52 0 93-15t65-38.5 39.5-55.5 21-63 5.5-65q0-11-1.5-24.5t-10-42-23-52.5-44.5-48.5-71-37.5q52-33 88-129 43-145 84-225h-51q-22 42-51 127t-47 123q-19 46-52 67t-90 21h-241v-338h-50zm50 383h288q41 0 73 13t50.5 32 30.5 43.5 16 45.5 4 40q0 85-42 140.5t-136 55.5h-284v-370z"/><glyph unicode="¯" horiz-adv-x="548" d="M82 1305v49h385v-49h-385z"/><glyph unicode="°" horiz-adv-x="712" d="M72 1063q0 121 82 206t200 85 202.5-85.5 84.5-205.5-84-204.5-203-84.5q-118 0-200 84.5t-82 204.5zm53 0q0-100 66-167t163-67q98 0 165 67t67 167-67 168.5-165 68.5q-97 0-163-68.5t-66-168.5z"/><glyph unicode="±" horiz-adv-x="1140" d="M82 0v55h977v-55h-977zm0 700v60h463v428h53v-428h461v-60h-461v-432h-53v432h-463z"/><glyph unicode="²" horiz-adv-x="663" d="M68 963v45q0 69 35 109.5t132 108.5q9 6 13 9l147 106q82 59 105 84 43 46 43 99 0 73-56 118.5t-149 45.5q-64 0-117-27t-86-68l-33 33q24 40 89 74.5t147 34.5q108 0 181-54t73-155q0-40-14-74t-45.5-65-54.5-48.5-68-48.5l-177-125q-31-21-44.5-31.5t-34-30.5-29-39.5-8.5-43.5v-10h463v-47h-512z"/><glyph unicode="³" horiz-adv-x="663" d="M74 1036l28 35q84-80 215-80 99 0 152 44.5t53 113.5q0 72-55 121t-156 49h-43v47h37q99 0 152 46t53 112q0 69-51.5 116.5t-143.5 47.5q-100 0-186-70l-31 31q28 33 83.5 59.5t135.5 26.5q105 2 173.5-54t68.5-157q0-128-131-181 72-19 109.5-73t37.5-115q0-99-74-155t-177-54q-148 0-250 90z"/><glyph unicode="´" horiz-adv-x="356" d="M82 1126l125 228h67l-139-228h-53z"/><glyph unicode="¶" horiz-adv-x="872" d="M61 995q0 160 109.5 272.5t265.5 112.5h314v-1818h-43v1775h-156v-1775h-45v1050q-122 0-224.5 51.5t-161.5 139.5-59 192z"/><glyph unicode="·" horiz-adv-x="268" d="M102 608v117h64v-117h-64z"/><glyph unicode="¸" horiz-adv-x="548" d="M82-313l106-35q43-15 82-15.5t67.5 13.5 49 37.5 26.5 59-.5 77-32.5 92.5-69 104h47q29-34 59.5-86t39.5-86q31-112-29.5-190.5t-187.5-65.5q-70 7-158 48v47z"/><glyph unicode="¹" horiz-adv-x="491" d="M82 1577l160 145h55v-759h-47v706l-139-125z"/><glyph unicode="º" horiz-adv-x="745" d="M82 1180q0 150 78.5 237.5t212.5 87.5q136 0 213.5-87t77.5-238q0-154-77.5-241t-213.5-87q-134 0-212.5 87.5t-78.5 240.5zm4-553v49h571v-49h-571zm49 553q0-120 62-199.5t176-79.5 177.5 78 63.5 201q0 119-64 196.5t-177 77.5q-114 0-176-77t-62-197z"/><glyph unicode="»" horiz-adv-x="772" d="M102 188l271 474-269 473h62l270-473-272-474h-62zm234 0l270 474-268 473h61l271-473-273-474h-61z"/><glyph unicode="¼" horiz-adv-x="1280" d="M123 1237l160 145h55v-759h-47v706l-139-125zm20-1237l822 1380h51l-821-1380h-52zm443 170v41q98 177 325 459v-2l76 92h53v-547h117v-43h-117v-170h-51v170h-403zm53 43h350v473l-49-59v2q-7-9-32.5-41t-33.5-42.5-30-39-32.5-42.5-30.5-41-34-47-33-48-37.5-56-37.5-59z"/><glyph unicode="½" horiz-adv-x="1411" d="M123 1237l160 145h55v-759h-47v706l-139-125zm35-1237l821 1380h51l-821-1380h-51zm606 0h512v47h-463v10q0 31 19.5 59.5t38.5 43.5 59 43l176 125q37 25 54.5 37.5t47 38 43.5 46 25.5 50.5 11.5 63q0 101-73 155t-181 54q-82 0-146.5-34t-88.5-74l32-33q33 41 86 67.5t117 26.5q93 0 149-45.5t56-118.5q0-27-9-50t-32.5-46.5-38.5-35.5-52-39q-10-7-15-11l-148-107q-103-73-130-101-50-52-50-126v-45z"/><glyph unicode="¾" horiz-adv-x="1529" d="M123 696l29 35q84-80 215-80 99 0 151.5 44.5t52.5 113.5q0 72-55 121t-156 49h-43v47h37q99 0 152 46t53 112q0 69-51 116.5t-143 47.5q-101 0-187-70l-31 31q28 33 84 59.5t136 26.5q105 2 173-54t68-157q0-127-131-180 72-19 110-73.5t38-115.5q0-99-74.5-155t-177.5-54q-148 0-250 90zm250-696l821 1380h51l-821-1380h-51zm463 170v41q98 177 325 459v-2l76 92h53v-547h117v-43h-117v-170h-51v170h-403zm53 43h350v473l-49-59v2q-7-9-32.5-41t-33.5-42.5-30-39-32.5-42.5-30.5-41-34-47-33-48-37.5-56-37.5-59z"/><glyph unicode="¿" horiz-adv-x="1036" d="M131-45q0 88 47.5 180t147.5 176l57 47.5 51.5 43.5 40.5 36.5 36.5 36.5 27 33.5 23.5 37.5 13.5 38 10.5 45.5 2 50.5h49q0-36-5-65.5t-11-53-23-49-30-43-42-45.5-50-46-63.5-55.5-72.5-64.5q-75-66-115.5-146t-40.5-157q0-141 98.5-234.5t282.5-93.5q113 0 196 49t150 152l43-23q-33-65-81.5-113t-128.5-80-179-32q-90 0-167.5 23t-137.5 67.5-94.5 117.5-34.5 167zm455 885v151h55v-151h-55z"/><glyph unicode="À" horiz-adv-x="1292" d="M20 0l596 1380h62l594-1380h-55l-156 352h-832l-151-352h-58zm230 399h788l-391 918zm201 1344h67l125-227h-53z"/><glyph unicode="Á" horiz-adv-x="1292" d="M20 0l596 1380h62l594-1380h-55l-156 352h-832l-151-352h-58zm230 399h788l-391 918zm397 1117l125 227h68l-140-227h-53z"/><glyph unicode="Â" horiz-adv-x="1292" d="M20 0l596 1380h62l594-1380h-55l-156 352h-832l-151-352h-58zm230 399h788l-391 918zm182 1125l168 219h90l168-219h-59l-154 186-153-186h-60z"/><glyph unicode="Ã" horiz-adv-x="1292" d="M20 0l596 1380h62l594-1380h-55l-156 352h-832l-151-352h-58zm230 399h788l-391 918zm162 1217q13 66 55.5 99t101.5 28q44-5 101-40.5t82-35.5q32 0 49.5 16.5t29.5 59.5h48q-4-67-45-95.5t-93-23.5q-40 4-71 22.5t-56.5 34-56.5 15.5q-39 0-59.5-17.5t-34.5-62.5h-51z"/><glyph unicode="Ä" horiz-adv-x="1292" d="M20 0l596 1380h62l594-1380h-55l-156 352h-832l-151-352h-58zm230 399h788l-391 918zm252 1192v152h55v-152h-55zm233 0v152h56v-152h-56z"/><glyph unicode="Å" horiz-adv-x="1292" d="M20 0l596 1380h62l594-1380h-55l-156 352h-832l-151-352h-58zm230 399h788l-391 918zm242 1303q0 66 39.5 112t113.5 46 114-45.5 40-112.5q0-65-43-111.5t-111-46.5-110.5 47-42.5 111zm45 0q0-44 27.5-79.5t78.5-35.5q53 0 81 35.5t28 79.5-28 79.5-81 35.5q-51 0-78.5-35.5t-27.5-79.5z"/><glyph unicode="Æ" horiz-adv-x="1912" d="M20 0l691 1380h1091v-47h-788v-610h731v-51h-733v-621h809v-51h-865v348h-696l-182-348h-58zm254 399h682v934h-208z"/><glyph unicode="Ç" horiz-adv-x="1177" d="M82 688q0 149 47.5 279.5t133.5 228 214.5 153.5 282.5 56q226 0 356-49l-14-43q-83 19-169.5 30t-121.5 11q-141 0-256-39t-191-103.5-128-151.5-74.5-180.5-22.5-193.5q0-101 22.5-194t74-180 128-151 191.5-102.5 256-38.5q135 0 293 43l12-45q-132-47-356-47-28 0-78 4 45-63 63-127 31-112-29.5-190.5t-187.5-65.5q-69 7-157 48v47l106-35q50-18 90-14.5t72 19 48.5 48.5 18.5 73.5-17.5 94.5-59.5 111q-167 28-292.5 128.5t-190 249.5-64.5 326z"/><glyph unicode="È" horiz-adv-x="1087" d="M133 0v1380h848v-51h-793v-604h734v-53h-734v-621h807v-51h-862zm256 1743h68l125-227h-54z"/><glyph unicode="É" horiz-adv-x="1087" d="M133 0v1380h848v-51h-793v-604h734v-53h-734v-621h807v-51h-862zm381 1516l125 227h68l-140-227h-53z"/><glyph unicode="Ê" horiz-adv-x="1087" d="M133 0v1380h848v-51h-793v-604h734v-53h-734v-621h807v-51h-862zm197 1524l168 219h90l168-219h-60l-153 186-154-186h-59z"/><glyph unicode="Ë" horiz-adv-x="1087" d="M133 0v1380h848v-51h-793v-604h734v-53h-734v-621h807v-51h-862zm266 1591v152h56v-152h-56zm234 0v152h55v-152h-55z"/><glyph unicode="Ì" horiz-adv-x="301" d="M-18 1743h67l125-227h-53zm141-1743v1380h55v-1380h-55z"/><glyph unicode="Í" horiz-adv-x="301" d="M121 1516l125 227h67l-139-227h-53zm2-1516v1380h55v-1380h-55z"/><glyph unicode="Î" horiz-adv-x="301" d="M-61 1524l167 219h91l168-219h-60l-153 186-154-186h-59zm184-1524v1380h55v-1380h-55z"/><glyph unicode="Ï" horiz-adv-x="301" d="M6 1591v152h55v-152h-55zm117-1591v1380h55v-1380h-55zm117 1591v152h55v-152h-55z"/><glyph unicode="Ð" horiz-adv-x="1445" d="M20 625v49h228v706h461q321 0 498-175t177-515-177-515-498-175h-461v625h-228zm283-574h416q103 0 192 22t166.5 71.5 133 123 87 181 31.5 241.5q0 170-45.5 295t-129.5 199.5-194 109.5-249 35h-408v-655h463v-49h-463v-574z"/><glyph unicode="Ñ" horiz-adv-x="1318" d="M133 0v1380h84l913-1321v1321h56v-1380h-78l-920 1321v-1321h-55zm293 1616q13 66 56 99t102 28q44-5 100.5-40.5t81.5-35.5q32 0 50 16.5t30 59.5h47q-4-67-44.5-95.5t-92.5-23.5q-40 4-71 22.5t-57 34-57 15.5q-39 0-59.5-17.5t-34.5-62.5h-51z"/><glyph unicode="Ò" horiz-adv-x="1460" d="M82 690q0 333 174.5 524t474.5 191 473.5-190.5 173.5-524.5-173.5-526.5-473.5-192.5-474.5 192.5-174.5 526.5zm53 0q0-144 38.5-265.5t112-212 188-141.5 257.5-51 257 51 187 141.5 111.5 212 38.5 265.5q0 109-24 207.5t-73 182.5-118.5 145.5-166.5 96-212 34.5q-143 0-257.5-53t-187.5-145-112-211.5-39-256.5zm416 1053h67l125-227h-53z"/><glyph unicode="Ó" horiz-adv-x="1460" d="M82 690q0-334 174.5-526.5t474.5-192.5 473.5 192.5 173.5 526.5-173.5 524.5-473.5 190.5-474.5-191-174.5-524zm53 0q0 137 39 256.5t112 211.5 187.5 145 257.5 53q115 0 212-34.5t166.5-96 118.5-145.5 73-182.5 24-207.5q0-144-38.5-265.5t-111.5-212-187-141.5-257-51-257.5 51-188 141.5-112 212-38.5 265.5zm565 826l125 227h68l-139-227h-54z"/><glyph unicode="Ô" horiz-adv-x="1460" d="M82 690q0-334 174.5-526.5t474.5-192.5 473.5 192.5 173.5 526.5-173.5 524.5-473.5 190.5-474.5-191-174.5-524zm53 0q0 137 39 256.5t112 211.5 187.5 145 257.5 53q115 0 212-34.5t166.5-96 118.5-145.5 73-182.5 24-207.5q0-144-38.5-265.5t-111.5-212-187-141.5-257-51-257.5 51-188 141.5-112 212-38.5 265.5zm381 834l168 219h90l168-219h-59l-154 186-154-186h-59z"/><glyph unicode="Õ" horiz-adv-x="1460" d="M82 690q0-334 174.5-526.5t474.5-192.5 473.5 192.5 173.5 526.5-173.5 524.5-473.5 190.5-474.5-191-174.5-524zm53 0q0 137 39 256.5t112 211.5 187.5 145 257.5 53q115 0 212-34.5t166.5-96 118.5-145.5 73-182.5 24-207.5q0-144-38.5-265.5t-111.5-212-187-141.5-257-51-257.5 51-188 141.5-112 212-38.5 265.5zm361 926q13 66 55.5 99t101.5 28q44-5 101-40.5t82-35.5q32 0 49.5 16.5t29.5 59.5h48q-4-67-45-95.5t-93-23.5q-40 4-71 22.5t-56.5 34-56.5 15.5q-39 0-59.5-17.5t-34.5-62.5h-51z"/><glyph unicode="Ö" horiz-adv-x="1460" d="M82 690q0-334 174.5-526.5t474.5-192.5 473.5 192.5 173.5 526.5-173.5 524.5-473.5 190.5-474.5-191-174.5-524zm53 0q0 137 39 256.5t112 211.5 187.5 145 257.5 53q115 0 212-34.5t166.5-96 118.5-145.5 73-182.5 24-207.5q0-144-38.5-265.5t-111.5-212-187-141.5-257-51-257.5 51-188 141.5-112 212-38.5 265.5zm451 901v152h55v-152h-55zm233 0v152h55v-152h-55z"/><glyph unicode="×" horiz-adv-x="1118" d="M82 35l440 442q-33 33-129 128.5t-175.5 175-125.5 126.5l37 37 430-430 428 428 37-37-426-428 438-438-37-39-440 440-440-444z"/><glyph unicode="Ø" horiz-adv-x="1460" d="M82 690q0 333 174.5 524t474.5 191q219 0 373-105l119 175h65l-141-207q111-92 171-239.5t60-338.5q0-334-173.5-526.5t-473.5-192.5q-233 0-387 115l-129-195h-65l151 228q-219 194-219 571zm53 0q0-165 50-300.5t147-225.5l739 1089q-140 103-340 103-143 0-257.5-53t-187.5-145-112-211.5-39-256.5zm238-561q146-109 358-109 143 0 257 51t187 141.5 111.5 212 38.5 265.5q0 162-54 301t-157 228z"/><glyph unicode="Ù" horiz-adv-x="1363" d="M133 567v813h57v-800q0-291 115.5-423t374.5-132q260 0 377 132t117 423v800h57v-813q0-163-38-279.5t-111.5-185-172-100-229.5-31.5q-130 0-228 31.5t-171 100-110.5 185-37.5 279.5zm453 1176h67l125-227h-53z"/><glyph unicode="Ú" horiz-adv-x="1363" d="M133 567q0-163 37.5-279.5t110.5-185 171-100 228-31.5q131 0 229.5 31.5t172 100 111.5 185 38 279.5v813h-57v-800q0-291-117-423t-377-132q-259 0-374.5 132t-115.5 423v800h-57v-813zm453 949l125 227h67l-139-227h-53z"/><glyph unicode="Û" horiz-adv-x="1363" d="M133 567q0-163 37.5-279.5t110.5-185 171-100 228-31.5q131 0 229.5 31.5t172 100 111.5 185 38 279.5v813h-57v-800q0-291-117-423t-377-132q-259 0-374.5 132t-115.5 423v800h-57v-813zm336 957l168 219h90l168-219h-59l-154 186-154-186h-59z"/><glyph unicode="Ü" horiz-adv-x="1363" d="M133 567q0-163 37.5-279.5t110.5-185 171-100 228-31.5q131 0 229.5 31.5t172 100 111.5 185 38 279.5v813h-57v-800q0-291-117-423t-377-132q-259 0-374.5 132t-115.5 423v800h-57v-813zm404 1024v152h55v-152h-55zm233 0v152h55v-152h-55z"/><glyph unicode="Ý" horiz-adv-x="1163" d="M20 1380l531-893v-487h57v487l535 893h-68l-495-839-496 839h-64zm465 136l125 227h68l-139-227h-54z"/><glyph unicode="Þ" horiz-adv-x="1103" d="M133 0v1380h55v-368q136 174 367 174 228 0 352.5-145.5t124.5-383.5q0-235-122.5-379.5t-336.5-144.5q-24 0-47 1.5t-64.5 7-79 18-76.5 32-70.5 53.5-49.5 77v-322h-53zm55 506q0-79 27.5-139.5t68-95 94.5-56 99-28.5 90-7q79 0 144 21.5t108 59 74.5 84 49 102 25 106.5 7.5 104q0 55-8 110t-35 124.5-70.5 121.5-123.5 88-185 36q-45 0-93-9.5t-97-32.5-87.5-55.5-63-82.5-24.5-111v-340z"/><glyph unicode="ß" horiz-adv-x="1124" d="M123 0v924q0 239 105.5 360t326.5 121q57 0 112-10.5t109.5-36 95-63.5 66-98 25.5-134q0-119-66-209.5t-205-116.5q69-3 125.5-19.5t93-39.5 64-55.5 42-62 23.5-65 11-59.5 2-49q0-53-15-105.5t-49.5-104-85-90.5-128.5-63-173-24h-266v51h266q97 0 175 30t124.5 79 71 107 24.5 118q0 132-69 210t-240 97l-43 6v78l45 8q101 21 159 90.5t58 188.5q0 127-98.5 208t-253.5 81q-183 0-280-110t-97-335v-907h-55z"/><glyph unicode="à" horiz-adv-x="974" d="M61 248q0 88 47 151t144.5 104 232 63 324.5 32v123q0 13-1 27t-8 40.5-19 50-37 50-58.5 45-86.5 31-118 12.5q-128 0-295-64l-20 45q48 19 74.5 29t98 23.5 146.5 13.5h21.5l52.5-4.5 75-13.5 79.5-30.5 74.5-51.5 52.5-81 21.5-114v-729h-53v190q-20-54-66.5-97.5t-102.5-69-113.5-39-108.5-13.5q-96 0-175.5 30.5t-130.5 95-51 151.5zm48 2q0-101 92-167.5t221-66.5q27 0 68 7.5t98.5 30 105 56.5 81.5 96 34 140v207q-350-18-526.5-91.5t-173.5-211.5zm245 1104h68l125-228h-53z"/><glyph unicode="á" horiz-adv-x="974" d="M61 248q0-87 51-151.5t130.5-95 175.5-30.5q51 0 108.5 13.5t113.5 39 102.5 69 66.5 97.5v-190h53v729q0 63-21 114t-54 81-73 51.5-80.5 30.5-73.5 13.5-54 4.5h-21q-75 0-146.5-13.5t-98-23.5-74.5-29l20-45q167 64 295 64 65 0 118-12.5t86.5-31 58.5-45 37-50 19-50 8-40.5 1-27v-123q-190-10-324.5-32t-232-63-144.5-104-47-151zm48 2q-3 138 173.5 211.5t526.5 91.5v-207q0-78-34-140t-81.5-96-105-56.5-98.5-30-68-7.5q-129 0-221 66.5t-92 167.5zm290 876l125 228h68l-139-228h-54z"/><glyph unicode="â" horiz-adv-x="974" d="M61 248q0-87 51-151.5t130.5-95 175.5-30.5q51 0 108.5 13.5t113.5 39 102.5 69 66.5 97.5v-190h53v729q0 63-21 114t-54 81-73 51.5-80.5 30.5-73.5 13.5-54 4.5h-21q-75 0-146.5-13.5t-98-23.5-74.5-29l20-45q167 64 295 64 65 0 118-12.5t86.5-31 58.5-45 37-50 19-50 8-40.5 1-27v-123q-190-10-324.5-32t-232-63-144.5-104-47-151zm48 2q-3 138 173.5 211.5t526.5 91.5v-207q0-78-34-140t-81.5-96-105-56.5-98.5-30-68-7.5q-129 0-221 66.5t-92 167.5zm153 885l168 219h90l168-219h-59l-154 186-153-186h-60z"/><glyph unicode="ã" horiz-adv-x="997" d="M84 248q0-130 104-203.5t252-73.5q51 0 108.5 13.5t113.5 39 102.5 69 66.5 97.5v-190h54v729q0 63-21 114t-54 81-73.5 51.5-80.5 30.5-73 13.5-54 4.5h-21q-75 0-146.5-13.5t-98.5-23.5-75-29l21-45q167 64 295 64 65 0 118-12.5t86.5-31 58-45 36.5-50 19-50.5 8-40.5 1-26.5v-123q-190-10-324-32t-231.5-63-144.5-104-47-151zm47 2q-3 138 173.5 211.5t526.5 91.5v-207q0-78-34-140t-81.5-96-105-56.5-98.5-30-68-7.5q-129 0-221 66.5t-92 167.5zm133 977q13 66 56 99t102 28q44-5 100.5-40.5t81.5-35.5q32 0 50 16.5t30 59.5h47q-4-67-44.5-95.5t-92.5-23.5q-40 4-71 22.5t-56.5 34-56.5 15.5q-40 0-60.5-18t-34.5-62h-51z"/><glyph unicode="ä" horiz-adv-x="974" d="M61 248q0-87 51-151.5t130.5-95 175.5-30.5q51 0 108.5 13.5t113.5 39 102.5 69 66.5 97.5v-190h53v729q0 63-21 114t-54 81-73 51.5-80.5 30.5-73.5 13.5-54 4.5h-21q-75 0-146.5-13.5t-98-23.5-74.5-29l20-45q167 64 295 64 65 0 118-12.5t86.5-31 58.5-45 37-50 19-50 8-40.5 1-27v-123q-190-10-324.5-32t-232-63-144.5-104-47-151zm48 2q-3 138 173.5 211.5t526.5 91.5v-207q0-78-34-140t-81.5-96-105-56.5-98.5-30-68-7.5q-129 0-221 66.5t-92 167.5zm223 952v152h55v-152h-55zm233 0v152h56v-152h-56z"/><glyph unicode="å" horiz-adv-x="974" d="M61 248q0 88 47 151t144.5 104 232 63 324.5 32v123q0 13-1 27t-8 40.5-19 50-37 50-58.5 45-86.5 31-118 12.5q-128 0-295-64l-20 45q48 19 74.5 29t98 23.5 146.5 13.5h21.5l52.5-4.5 75-13.5 79.5-30.5 74.5-51.5 52.5-81 21.5-114v-729h-53v190q-20-54-66.5-97.5t-102.5-69-113.5-39-108.5-13.5q-96 0-175.5 30.5t-130.5 95-51 151.5zm48 2q0-101 92-167.5t221-66.5q27 0 68 7.5t98.5 30 105 56.5 81.5 96 34 140v207q-350-18-526.5-91.5t-173.5-211.5zm213 1063q0 66 39.5 111.5t113.5 45.5 114-45 40-112q0-65-43-111.5t-111-46.5-110.5 47-42.5 111zm45 0q0-44 27.5-79.5t78.5-35.5q53 0 81 35.5t28 79.5-28 79-81 35q-51 0-78.5-35t-27.5-79z"/><glyph unicode="æ" horiz-adv-x="1789" d="M78 248q0 59 22.5 105t69 80 107 58.5 146 41 176.5 26 208 16.5v165.5l-6 37-16.5 51-34.5 51-57 48.5-88 33-124 14q-55 0-108.5-9t-88-19.5-91.5-31.5l-17 43q146 66 309 66h19.5l49.5-4 70.5-12 75.5-27 73-46 54.5-72 28.5-101q59 122 165.5 192t238.5 70q100 0 182.5-28.5t144.5-86.5 96.5-151.5 34.5-216.5v-31h-858q1-233 122-360t331-127q143 0 293 53l16-49q-147-56-338-56-140 0-253 70t-173 195l-14 32q-2-16-12-41t-20-42l-9-17q-44-70-121-117t-147-63.5-136-16.5q-134 0-227.5 73.5t-93.5 203.5zm57 2q4-114 80.5-173t204.5-59q25 0 66 8t98.5 32 105.5 59.5 82.5 98 34.5 140.5v174q-163-9-281.5-27.5t-210-50.5-136.5-82.5-44-119.5zm727 309h801q-1 113-33 195.5t-89 129.5-126 69-153 22q-164 0-282-119t-118-297z"/><glyph unicode="ç" horiz-adv-x="874" d="M72 496q0 246 130.5 387t360.5 141q138 0 250-41l-18-51q-44 14-64.5 20.5t-63.5 13.5-87 7q-120 0-209.5-38.5t-141-107-76-151-24.5-180.5q0-77 15-145t49-129 85.5-104.5 128.5-69 173-25.5q117 0 217 32l16-51q-103-33-250-33h-31q51-77 62-123 31-112-29.5-190.5t-187.5-65.5q-70 7-158 48v47l107-35q40-14 76.5-15t65 10.5 49.5 32 29.5 52 6 68.5-20.5 83-51 94q-194 23-301.5 159t-107.5 360z"/><glyph unicode="è" d="M72 504q0 225 131 372.5t327 147.5q99 0 182.5-32.5t145.5-94 96.5-159 34.5-220.5v-33h-860q0-208 124.5-335t330.5-127q143 0 293 53l16-49q-147-56-338-56-101 0-189.5 37.5t-153.5 105-102.5 168.5-37.5 222zm59 26h803q-1 113-34 200t-89.5 139-127.5 78-153 26q-106 0-198-60t-146.5-162-54.5-221zm229 824h68l125-228h-53z"/><glyph unicode="é" d="M72 504q0-121 37.5-222t102.5-168.5 153.5-105 189.5-37.5q191 0 338 56l-16 49q-150-53-293-53-206 0-330.5 127t-124.5 335h860v33q0 123-34.5 220.5t-96.5 159-145.5 94-182.5 32.5q-196 0-327-147.5t-131-372.5zm59 26q0 119 54.5 221t146.5 162 198 60q82 0 153-26t127.5-78 89.5-139 34-200h-803zm367 596l125 228h67l-139-228h-53z"/><glyph unicode="ê" d="M72 504q0-121 37.5-222t102.5-168.5 153.5-105 189.5-37.5q191 0 338 56l-16 49q-150-53-293-53-206 0-330.5 127t-124.5 335h860v33q0 123-34.5 220.5t-96.5 159-145.5 94-182.5 32.5q-196 0-327-147.5t-131-372.5zm59 26q0 119 54.5 221t146.5 162 198 60q82 0 153-26t127.5-78 89.5-139 34-200h-803zm186 605l168 219h90l168-219h-59l-154 186-153-186h-60z"/><glyph unicode="ë" d="M72 504q0-121 37.5-222t102.5-168.5 153.5-105 189.5-37.5q191 0 338 56l-16 49q-150-53-293-53-206 0-330.5 127t-124.5 335h860v33q0 123-34.5 220.5t-96.5 159-145.5 94-182.5 32.5q-196 0-327-147.5t-131-372.5zm59 26q0 119 54.5 221t146.5 162 198 60q82 0 153-26t127.5-78 89.5-139 34-200h-803zm254 672v152h55v-152h-55zm233 0v152h56v-152h-56z"/><glyph unicode="ì" horiz-adv-x="299" d="M-12 1354h67l125-228h-53zm135-1354v991h53v-991h-53z"/><glyph unicode="í" horiz-adv-x="299" d="M123 0h53v991h-53v-991zm2 1126l125 228h67l-139-228h-53z"/><glyph unicode="î" horiz-adv-x="299" d="M-63 1135l167 219h91l167-219h-59l-153 186-154-186h-59zm186-1135h53v991h-53v-991z"/><glyph unicode="ï" horiz-adv-x="299" d="M6 1202v152h55v-152h-55zm117-1202h53v991h-53v-991zm117 1202v152h55v-152h-55z"/><glyph unicode="ð" d="M61 498q0 245 126 385.5t343 140.5q76 0 137-18t91-37 80-58q-51 88-130.5 179.5t-147 151.5-134.5 110l-176-176-31 28 166 170q-122 90-197 119l39 33q118-55 195-115l141 143 33-28-137-137q540-390 540-891 0-247-126-388t-343-141-343 141-126 388zm54 0q0-133 45.5-240.5t141.5-174.5 228-67q129 0 225 64.5t143.5 173 47.5 244.5q0 100-28 186.5t-80 151.5-131.5 102-176.5 37q-133 0-228.5-65t-141-171-45.5-241z"/><glyph unicode="ñ" horiz-adv-x="1073" d="M123 0v991h57v-162q28 60 78 101.5t107 60.5 101.5 26 84.5 7q90 0 159.5-21.5t125-69.5 85-134 29.5-207v-592h-57v592q0 178-82.5 280.5t-253.5 102.5q-49 0-99.5-10t-101.5-33.5-90-59-63.5-90.5-24.5-123v-659h-55zm180 1227q13 66 56 99t102 28q44-5 100.5-40.5t81.5-35.5q32 0 50 16.5t30 59.5h47q-4-67-44.5-95.5t-92.5-23.5q-40 4-71 22.5t-56.5 34-56.5 15.5q-40 0-60.5-18t-34.5-62h-51z"/><glyph unicode="ò" d="M61 498q0 245 126 385.5t343 140.5 343-140.5 126-385.5q0-247-126-388t-343-141-343 141-126 388zm54 0q0-133 45.5-240.5t141.5-174.5 228-67q129 0 225 64.5t143.5 173 47.5 244.5q0 100-28 186.5t-80 151.5-131.5 102-176.5 37q-133 0-228.5-65t-141-171-45.5-241zm241 856h68l125-228h-53z"/><glyph unicode="ó" d="M61 498q0-247 126-388t343-141 343 141 126 388q0 245-126 385.5t-343 140.5-343-140.5-126-385.5zm54 0q0 135 45.5 241t141 171 228.5 65q97 0 176.5-37t131.5-102 80-151.5 28-186.5q0-136-47.5-244.5t-143.5-173-225-64.5q-132 0-228 67t-141.5 174.5-45.5 240.5zm391 628l125 228h67l-139-228h-53z"/><glyph unicode="ô" d="M61 498q0-247 126-388t343-141 343 141 126 388q0 245-126 385.5t-343 140.5-343-140.5-126-385.5zm54 0q0 135 45.5 241t141 171 228.5 65q97 0 176.5-37t131.5-102 80-151.5 28-186.5q0-136-47.5-244.5t-143.5-173-225-64.5q-132 0-228 67t-141.5 174.5-45.5 240.5zm202 637l168 219h90l168-219h-59l-154 186-153-186h-60z"/><glyph unicode="õ" d="M61 498q0-247 126-388t343-141 343 141 126 388q0 245-126 385.5t-343 140.5-343-140.5-126-385.5zm54 0q0 135 45.5 241t141 171 228.5 65q97 0 176.5-37t131.5-102 80-151.5 28-186.5q0-136-47.5-244.5t-143.5-173-225-64.5q-132 0-228 67t-141.5 174.5-45.5 240.5zm182 729q13 66 56 99t102 28q44-5 100.5-40.5t81.5-35.5q32 0 50 16.5t30 59.5h47q-4-67-44.5-95.5t-92.5-23.5q-40 4-71 22.5t-57 34-57 15.5q-39 0-59.5-17.5t-34.5-62.5h-51z"/><glyph unicode="ö" d="M61 498q0-247 126-388t343-141 343 141 126 388q0 245-126 385.5t-343 140.5-343-140.5-126-385.5zm54 0q0 135 45.5 241t141 171 228.5 65q97 0 176.5-37t131.5-102 80-151.5 28-186.5q0-136-47.5-244.5t-143.5-173-225-64.5q-132 0-228 67t-141.5 174.5-45.5 240.5zm270 704v152h55v-152h-55zm233 0v152h56v-152h-56z"/><glyph unicode="÷" horiz-adv-x="1058" d="M82 471v51h895v-51h-895zm407-471v127h76v-127h-76zm0 862v127h76v-127h-76z"/><glyph unicode="ø" d="M61 498q0 245 126 385.5t343 140.5q160 0 273-78l92 144h57l-110-175q157-141 157-417 0-247-126-388t-343-141q-147 0-254 66l-100-154h-57l119 180q-177 141-177 437zm54 0q0-121 38.5-222.5t112.5-166.5l506 790q-102 76-242 76-133 0-228.5-65t-141-171-45.5-241zm190-418q95-64 225-64 129 0 225 64.5t143.5 173 47.5 244.5q0 234-137 368z"/><glyph unicode="ù" horiz-adv-x="1073" d="M123 399v592h53v-592q0-176 84-276t256-100q25 0 53 3t65.5 12.5 72.5 24 70 40 60.5 58 41.5 81 16 106.5v643h55v-991h-57v170q-23-48-61.5-85.5t-78.5-58-86.5-34-80.5-17.5-64-4q-90 0-159.5 21t-125 68-85 132.5-29.5 206.5zm317 955h68l125-228h-53z"/><glyph unicode="ú" horiz-adv-x="1073" d="M123 399v592h53v-592q0-176 84-276t256-100q25 0 53 3t65.5 12.5 72.5 24 70 40 60.5 58 41.5 81 16 106.5v643h55v-991h-57v170q-23-48-61.5-85.5t-78.5-58-86.5-34-80.5-17.5-64-4q-90 0-159.5 21t-125 68-85 132.5-29.5 206.5zm317 727l125 228h68l-139-228h-54z"/><glyph unicode="û" horiz-adv-x="1073" d="M123 399v592h53v-592q0-176 84-276t256-100q25 0 53 3t65.5 12.5 72.5 24 70 40 60.5 58 41.5 81 16 106.5v643h55v-991h-57v170q-23-48-61.5-85.5t-78.5-58-86.5-34-80.5-17.5-64-4q-90 0-159.5 21t-125 68-85 132.5-29.5 206.5zm201 736l168 219h90l168-219h-60l-153 186-154-186h-59z"/><glyph unicode="ü" horiz-adv-x="1073" d="M123 399v592h53v-592q0-176 84-276t256-100q25 0 53 3t65.5 12.5 72.5 24 70 40 60.5 58 41.5 81 16 106.5v643h55v-991h-57v170q-23-48-61.5-85.5t-78.5-58-86.5-34-80.5-17.5-64-4q-90 0-159.5 21t-125 68-85 132.5-29.5 206.5zm268 803v152h55v-152h-55zm234 0v152h55v-152h-55z"/><glyph unicode="ý" horiz-adv-x="1013" d="M20 991h64l440-966 406 966h63l-559-1313q-22-53-68.5-86.5t-82.5-43-66-9.5q-27 0-57 6l10 45q16-2 31-2 67 0 116 33t86 113l91 221zm424 135l125 228h68l-139-228h-54z"/><glyph unicode="þ" horiz-adv-x="1093" d="M133-410v1790h55v-530q136 174 367 174 228 0 352.5-145t124.5-383q0-235-122.5-380t-336.5-145q-24 0-47 1.5t-64.5 7-79 18-76.5 32-70.5 53.5-49.5 77v-570h-53zm55 754q0-79 27.5-139.5t68-95 94.5-56 99-28.5 90-7q94 0 168 31.5t118 80 72.5 114 39 127 10.5 125.5q0 37-4 75t-15.5 87-30 91.5-51.5 85-75.5 72.5-106 49-139.5 19q-45 0-93-9.5t-97-32.5-87.5-55.5-63-82.5-24.5-111v-340z"/><glyph unicode="ÿ" horiz-adv-x="1013" d="M20 991h64l440-966 406 966h63l-559-1313q-22-53-68.5-86.5t-82.5-43-66-9.5q-27 0-57 6l10 45q16-2 31-2 67 0 116 33t86 113l91 221zm342 211v152h56v-152h-56zm234 0v152h55v-152h-55z"/><glyph unicode="Œ" horiz-adv-x="2281" d="M82 690q0 333 174.5 524t474.5 191q219 0 373-103.5t223-293.5v372h848v-51h-793v-604h734v-53h-734v-621h807v-51h-862v371q-69-192-223-296t-373-104q-300 0-474.5 192.5t-174.5 526.5zm53 0q0-144 38.5-265.5t112-212 188-141.5 257.5-51 257 51 187 141.5 111.5 212 38.5 265.5q0 109-24 207.5t-73 182.5-118.5 145.5-166.5 96-212 34.5q-143 0-257.5-53t-187.5-145-112-211.5-39-256.5z"/><glyph unicode="œ" horiz-adv-x="1931" d="M61 498q0 245 126 385.5t343 140.5q167 0 282-85t161-241q50 149 164.5 237.5t263.5 88.5q99 0 182.5-32.5t145.5-94 96.5-159 34.5-220.5v-33h-861v-12q3-203 127.5-326.5t327.5-123.5q143 0 293 53l16-49q-147-56-338-56-158 0-279 87t-173 241q-44-157-159.5-243.5t-283.5-86.5q-217 0-343 141t-126 388zm54 0q0-133 45.5-240.5t141.5-174.5 228-67q181 0 290.5 118.5t123.5 307.5q3 57 0 115-16 185-125.5 301.5t-288.5 116.5q-133 0-228.5-65t-141-171-45.5-241zm886 32h803q-1 113-33.5 200t-89 139-127.5 78-153 26q-106 0-198-59.5t-147-162-55-221.5z"/><glyph unicode="Ÿ" horiz-adv-x="1163" d="M20 1380l531-893v-487h57v487l535 893h-68l-495-839-496 839h-64zm416 211v152h56v-152h-56zm234 0v152h55v-152h-55z"/><glyph unicode="ˆ" horiz-adv-x="589" d="M82 1135l168 219h90l168-219h-59l-154 186-154-186h-59z"/><glyph unicode="˜" horiz-adv-x="630" d="M82 1227q13 66 56 99t102 28q44-5 100.5-40.5t81.5-35.5q32 0 50 16.5t30 59.5h47q-4-67-44.5-95.5t-92.5-23.5q-40 4-71 22.5t-57 34-57 15.5q-39 0-59.5-17.5t-34.5-62.5h-51z"/><glyph horiz-adv-x="930"/><glyph horiz-adv-x="1860"/><glyph horiz-adv-x="930"/><glyph horiz-adv-x="1860"/><glyph horiz-adv-x="620"/><glyph horiz-adv-x="465"/><glyph horiz-adv-x="310"/><glyph horiz-adv-x="310"/><glyph horiz-adv-x="232"/><glyph horiz-adv-x="372"/><glyph horiz-adv-x="103"/><glyph unicode="‐" horiz-adv-x="833" d="M102 508v57h629v-57h-629z"/><glyph unicode="‑" horiz-adv-x="833" d="M102 508v57h629v-57h-629z"/><glyph unicode="‒" horiz-adv-x="833" d="M102 508v57h629v-57h-629z"/><glyph unicode="–" horiz-adv-x="1128" d="M82 516v49h965v-49h-965z"/><glyph unicode="—" horiz-adv-x="1884" d="M82 516v49h1720v-49h-1720z"/><glyph unicode="‘" horiz-adv-x="440" d="M102 1380h60l176-356h-55z"/><glyph unicode="’" horiz-adv-x="440" d="M102 1024l177 356h59l-180-356h-56z"/><glyph unicode="‚" horiz-adv-x="440" d="M102-164l177 357h59l-180-357h-56z"/><glyph unicode="“" horiz-adv-x="626" d="M102 1380h60l176-356h-55zm187 0h59l176-356h-55z"/><glyph unicode="”" horiz-adv-x="626" d="M102 1024l177 356h59l-180-356h-56zm187 0l176 356h59l-180-356h-55z"/><glyph unicode="„" horiz-adv-x="626" d="M102-164l177 357h59l-180-357h-56zm187 0l176 357h59l-180-357h-55z"/><glyph unicode="•" horiz-adv-x="571" d="M102 643q0 78 53.5 134.5t129.5 56.5q77 0 130.5-56t53.5-135q0-78-53-133t-131-55q-76 0-129.5 55t-53.5 133z"/><glyph unicode="…" horiz-adv-x="993" d="M102 0v119h58v-119h-58zm357 0v119h59v-119h-59zm372 0v119h60v-119h-60z"/><glyph horiz-adv-x="372"/><glyph unicode="‹" horiz-adv-x="538" d="M102 662l271 473h61l-268-473 270-474h-61z"/><glyph unicode="›" horiz-adv-x="538" d="M102 188l271 474-269 473h62l270-473-272-474h-62z"/><glyph horiz-adv-x="465"/><glyph unicode="€" horiz-adv-x="1433" d="M61 541l21 43h301q-6 52-6 104 0 45 2 70h-256l20 43h240q17 129 71.5 239t139 191.5 203.5 127.5 258 46q154 0 282-29l-20-51q-39 12-111 20.5t-100 8.5q-155 0-278.5-46t-201.5-125.5-123.5-175-60.5-206.5h699l-21-43h-682q-4-54-4-72 0-49 6-102h639l-20-43h-613q15-85 47-159.5t87-142 128-115.5 175-76 223-28q117 0 225 33l21-53q-131-29-297-29-268 0-445.5 159t-220.5 411h-328z"/><glyph unicode="™" horiz-adv-x="1732" d="M102 1335v45h729l349-755 350 755h72l28-809h-55l-23 746-340-746h-63l-340 746-23-746h-57l31 764h-314v-764h-53v764h-291z"/><glyph unicode="◼" horiz-adv-x="993" d="M0 0v993h993v-993h-993z"/></font>
</defs>
</svg>
