<svg xmlns="http://www.w3.org/2000/svg"><defs><font horiz-adv-x="1216"><font-face units-per-em="2048" ascent="1536" descent="-512"/><glyph unicode="ﬁ" horiz-adv-x="1325" d="M35 766v225h106v72q0 70 17 126t41.5 90.5 61.5 60 66.5 37 68 18 55.5 7.5 38 1q17 0 44-4t83-22 111-48l-59-199q-45 25-103 25-30 0-43.5-20t-13.5-41v-103h700v-991h-368v766h-332v-766h-369l2 766h-106z"/><glyph unicode="ﬂ" horiz-adv-x="1325" d="M35 766v225h106v49q0 70 17 126t41.5 90.5 61.5 60 66.5 37 68 18 55.5 7.5 38 1h719v-1380h-368v1133h-275q-30 0-43.5-20.5t-13.5-41.5v-80h168v-225h-168v-766h-369l2 766h-106z"/><glyph unicode="ﬃ" horiz-adv-x="2017" d="M35 766v225h106v72q0 70 17 126t41.5 90.5 61.5 60 66.5 37 68 18 55.5 7.5 38 1q17 0 44-4t83-22 111-48l-59-199q-45 25-103 25-30 0-43.5-20t-13.5-41v-103h326v72q0 70 17 126t41.5 90.5 61.5 60 66.5 37 68 18 55.5 7.5 38 1q16 0 43-4t83-22 111-48l-59-199q-45 25-103 25-30 0-43.5-20t-13.5-41v-103h701v-991h-369v766h-332v-766h-369l3 766h-326v-766h-369l2 766h-106z"/><glyph unicode="fll" horiz-adv-x="2017" d="M35 766v225h106v72q0 70 17 126t41.5 90.5 61.5 60 66.5 37 68 18 55.5 7.5 38 1q17 0 44-4t83-22 111-48l-59-199q-45 25-103 25-30 0-43.5-20t-13.5-41v-103h326v49q0 70 17 126t41.5 90.5 61.5 60 66.5 37 68 18 55.5 7.5 38 1h719v-1380h-369v1133h-275q-30 0-43.5-20.5t-13.5-41.5v-80h168v-225h-168v-766h-369l3 766h-326v-766h-369l2 766h-106z"/><glyph horiz-adv-x="2048"/><glyph horiz-adv-x="2048"/><glyph horiz-adv-x="2048"/><glyph horiz-adv-x="569"/><glyph horiz-adv-x="569"/><glyph horiz-adv-x="569"/><glyph unicode="!" horiz-adv-x="645" d="M137 0v289h371v-289h-371zm8 1380h355l-27-979h-301z"/><glyph unicode=""" horiz-adv-x="944" d="M76 1380h356l-53-649h-250zm436 0h356l-53-649h-250z"/><glyph unicode="#" horiz-adv-x="1277" d="M76 373v211h190l60 200h-148l2 205h217l119 391h272l-118-391h135l119 391h268l-119-391h129v-205h-196l-64-200h148l-3-211h-213l-120-373h-262l120 373h-137l-123-373h-270l119 373h-125zm463 211h139l63 200h-139z"/><glyph unicode="$" horiz-adv-x="1263" d="M55 207l131 262q90-80 227.5-136.5t256.5-56.5q61 0 108 24.5t47 78.5q0 72-65 100l-354 137q-161 63-235.5 159.5t-74.5 201.5q0 167 113 277.5t297 138.5v198h250v-196q111-16 201-60t200-125l-108-247q-80 51-147 83t-117.5 43.5-74.5 14-57 2.5h-10q-78 0-124-29t-46-69q0-61 88-103l350-131q83-32 143-75t92.5-91.5 47-96 14.5-99.5q0-181-128.5-290.5t-323.5-131.5v-230h-250v234q-68 6-139 31-200 77-312 182z"/><glyph unicode="%" horiz-adv-x="1667" d="M43 1034q0 161 93.5 253.5t252.5 92.5q162 0 257-92.5t95-253.5-95-254.5-257-93.5q-159 0-252.5 93.5t-93.5 254.5zm260 0q0-56 25-95.5t61-39.5q38 0 64 40t26 95q0 56-26 96.5t-64 40.5q-36 0-61-40.5t-25-96.5zm14-1034l816 1380h163l-813-1380h-166zm607 338q0 161 93.5 253.5t252.5 92.5q162 0 257-92.5t95-253.5-95-254.5-257-93.5q-159 0-252.5 93.5t-93.5 254.5zm260 0q0-56 25-95.5t61-39.5q38 0 64 40t26 95q0 56-26 96.5t-64 40.5q-36 0-61-40.5t-25-96.5z"/><glyph unicode="&" horiz-adv-x="1318" d="M76 385q0 223 215 348-119 122-115 283 5 78 42.5 141.5t96 102.5 128.5 60 145 21q74 0 143.5-20.5t126.5-59.5 94-101.5 43-139.5q5-82-35.5-174.5t-138.5-167.5l88-84q29 34 29 108h272q0-145-11.5-211t-53.5-141q51-48 77-83t43.5-102 16.5-165h-315q-1 13 .5 46.5t-1.5 53.5-14 39q-48-62-151.5-110.5t-212.5-48.5q-128 0-228.5 33t-161 90-91.5 128.5-31 153.5zm362 14q0-75 39-120.5t111-45.5q43 0 91 32.5t75 72.5l-217 215q-37-25-68-67t-31-87zm78 611q-3-52 16-97.5t52-64.5q36 25 56.5 70.5t16.5 89.5q-2 44-18 76t-51 32q-63 0-72-106z"/><glyph unicode="'" horiz-adv-x="507" d="M76 1380h356l-53-649h-250z"/><glyph unicode="(" horiz-adv-x="876" d="M117 518q1 261 81.5 459t226 305 335.5 107v-213q-57-1-116-45.5t-110-124.5-83.5-209-32.5-281q0-153 32.5-282t83.5-209 110-124.5 116-45.5v-211q-190 0-335.5 108t-226 306.5-81.5 459.5z"/><glyph unicode=")" horiz-adv-x="876" d="M117-145q57 1 116 45.5t110 124.5 83.5 209 32.5 282q0 152-32.5 281t-83.5 209-110 124.5-116 45.5v213q190 0 335.5-107t226-305 81.5-459q-1-261-81.5-459.5t-226-306.5-335.5-108v211z"/><glyph unicode="*" horiz-adv-x="864" d="M76 944l180 84q-7 3-18.5 7t-14.5 5l-147 68 108 184 158-96-4 86q-4 58-4 90h201l-9-176 152 96 110-180-180-86q30-14 92.5-42t87.5-40l-110-184-152 96 9-176h-201l10 176q-17-10-74.5-44t-85.5-52z"/><glyph unicode="+" horiz-adv-x="1214" d="M76 545v274h364v359h336v-359h363v-274h-363v-359h-336v359h-364z"/><glyph unicode="," horiz-adv-x="776" d="M76-180l246 489h378l-319-489h-305z"/><glyph unicode="-" horiz-adv-x="952" d="M76 379v303h801v-303h-801z"/><glyph unicode="." horiz-adv-x="575" d="M96 0v309h383v-309h-383z"/><glyph unicode="/" horiz-adv-x="845" d="M55 0l482 1380h254l-484-1380h-252z"/><glyph unicode="0" d="M72 653q0 315 142.5 497.5t387.5 182.5q254 0 397.5-182t143.5-498q0-315-143.5-496.5t-397.5-181.5q-245 0-387.5 182.5t-142.5 495.5zm356 0q0-107 19-197.5t59.5-150 95.5-59.5q60 0 102.5 59.5t62 149.5 19.5 198q0 106-19 196.5t-62 152-103 61.5q-55 0-95.5-61t-59.5-152.5-19-196.5z"/><glyph unicode="1" d="M174 981l385 330h295v-1311h-356v903l-152-127z"/><glyph unicode="2" d="M119 0v123q0 61 10.5 113.5t27 95 49.5 85 65 75 87 74.5 102.5 75.5 123.5 84.5q20 14 32 21.5t30 20 34 23.5q65 53 65 100 0 49-38.5 86t-102.5 37q-76 0-155.5-49.5t-129.5-110.5l-180 199q38 41 63.5 66.5t74.5 65 94 62.5 109 40.5 132 17.5q133 0 243-51t176.5-149 66.5-224q0-33-7.5-65.5t-18.5-59-32.5-55-39.5-49.5-49.5-47-52.5-42-59.5-41-59.5-38-62-38h2q-180-114-223-159h579v-287h-956z"/><glyph unicode="3" d="M106 182l148 195q66-62 146-93.5t153-31.5q188 0 188 133 0 59-35.5 101t-103.5 42h-164v281h158q62 0 96.5 37.5t34.5 87.5q0 51-33 90t-90 39q-96 0-178-35.5t-131-93.5l-150 184q11 17 32 39t64 54.5 93 58.5 124.5 44.5 155.5 18.5q133 1 239.5-43.5t171.5-136 65-215.5q0-46-14.5-90t-56.5-92.5-106-79.5q48-15 87.5-51.5t62-80 35-84.5 12.5-71q0-122-70.5-217.5t-181-144-237.5-47.5q-120 0-224 32t-166.5 72.5-124.5 97.5z"/><glyph unicode="4" d="M68 233v230q97 229 253.5 456t327.5 392h326v-803h172v-277h-172v-231l-359 2v231h-548zm305 275h243v375q-72-88-141-194t-102-181z"/><glyph unicode="5" d="M100 180l154 226q150-154 303-154 62 0 107.5 18t70 49 36 66 11.5 74q0 47-16.5 90.5t-58 76.5-101.5 33q-46 0-94.5-24.5t-69.5-79.5h-307l125 758h766v-289h-520l-33-203q46 48 117.5 66t132.5 18q79 0 149.5-30t125-85.5 86.5-141.5 32-191q0-100-31.5-182.5t-84.5-138-124-94-147.5-56-157.5-17.5q-145 0-264.5 56.5t-206.5 154.5z"/><glyph unicode="6" d="M102 606q0 346 156 536.5t412 190.5q194 0 379-127l-88-213q-113 76-265 76-39 0-81-17.5t-80.5-51.5-61-92.5-16.5-131.5q49 61 114 88t121 27q180 0 301-125.5t121-331.5q0-214-139.5-336.5t-358.5-122.5q-93 0-169.5 22.5t-129 59.5-92 90.5-62.5 108-37.5 120-19 119-4.5 111.5zm381-160q0-90 35-148t94-58q66 0 101 61t35 133q0 44-13.5 87.5t-46.5 77.5-78 34q-59 0-93-55t-34-132z"/><glyph unicode="7" d="M104 1026v285h1006v-217q-192-242-317.5-502.5t-231.5-591.5h-399q105 276 257.5 543.5t323.5 482.5h-639z"/><glyph unicode="8" d="M94 377q0 39 12.5 82.5t38 88.5 72.5 81.5 109 52.5q-91 40-142 123t-51 158q0 80 33 145t88.5 107 119 68 134.5 38q72 8 98 8 53 0 109-8 69-13 130.5-39.5t116-69 86-106.5 31.5-143q0-37-8-72.5t-27-74.5-57.5-74.5-91.5-59.5q47-12 86-40t64-61.5 42.5-72 25-71.5 7.5-60q0-81-31.5-152t-92.5-127.5-161.5-89.5-228.5-33-228.5 33-161 89.5-91.5 127.5-31 152zm352 10q0-63 48.5-98t111.5-35q71 0 119.5 39t48.5 94q0 71-45.5 114.5t-122.5 43.5q-75 0-117.5-43.5t-42.5-114.5zm15 559q0-57 41.5-89t99.5-32q60 0 106 31.5t46 85.5q0 58-40.5 91.5t-107.5 33.5q-64 0-104.5-32.5t-40.5-88.5z"/><glyph unicode="9" d="M102 874q0 214 139.5 336.5t358.5 122.5q93 0 169.5-22.5t129-59.5 92-90.5 62.5-108 37.5-120 19-119 4.5-111.5q0-346-155.5-536.5t-411.5-190.5q-194 0-379 127l88 213q111-75 264-75 39 0 81.5 17.5t81 51 61 92 16.5 131.5q-49-61-114-87.5t-122-26.5q-87 0-164 32t-134.5 90-90.5 144.5-33 189.5zm367 0q0-44 13.5-87t46-77 77.5-34q59 0 93 55t34 131q0 90-35 148.5t-94 58.5q-45 0-77-32.5t-45-75-13-87.5z"/><glyph unicode=":" horiz-adv-x="536" d="M76 0v309h385v-309h-385zm0 682v309h385v-309h-385z"/><glyph unicode=";" horiz-adv-x="776" d="M76-180l246 489h378l-319-489h-305zm241 862v309h383v-309h-383z"/><glyph unicode="<" horiz-adv-x="1241" d="M55 414v164l1069 471v-318l-604-239 604-238v-313z"/><glyph unicode="=" horiz-adv-x="1085" d="M76 328v258h934v-258h-934zm0 405v258h934v-258h-934z"/><glyph unicode=">" horiz-adv-x="1243" d="M117-59v313l604 238-604 239v318l1069-471v-164z"/><glyph unicode="?" horiz-adv-x="1169" d="M127 1133q17 30 38.5 59.5t64 69 91.5 69 122 50 155 20.5q102 0 190.5-26t157.5-76.5 108.5-131.5 39.5-184q0-62-24-123t-64.5-111.5-86-91-94.5-71.5q-3-3-16.5-13.5t-16.5-13-13.5-12-13-14-10.5-15-9.5-18.5-6.5-21.5-6-27-2.5-31.5-1.5-39h-321q0 128 17.5 191.5t55 108 153.5 148.5q19 18 30 27 61 52 61 139 0 55-36.5 96.5t-96.5 41.5q-77 0-149-53t-103-115zm260-1133v289h371v-289h-371z"/><glyph unicode="@" horiz-adv-x="1693" d="M96 621q0 227 104 403t278.5 269 387.5 93q151 0 276.5-39.5t208-103.5 139.5-147.5 82-169 25-170.5q0-121-30.5-221.5t-79.5-165.5-112-110.5-127-65-126-19.5q-76 0-122.5 55.5t-51.5 124.5q-20-45-52-77t-64.5-44.5-53-17-35.5-4.5q-152 0-235.5 79t-83.5 236q0 100 35 189t91.5 150 129.5 96.5 149 35.5q103 0 140-112l22 96h281l-113-500q-3-6-4.5-21t0-33 11-31 26.5-13q15 0 37.5 12.5t49.5 41 49.5 68.5 38 102.5 15.5 135.5q0 91-29.5 167t-79.5 127.5-116.5 87-139.5 51.5-151 16q-240 0-394.5-158.5t-154.5-412.5q0-172 66-307t198-215.5 312-80.5q260 0 543 199l88-121q-111-114-289.5-185t-347.5-71q-172 0-319 57.5t-250.5 159-162.5 247.5-59 317zm611-101q0-106 55-106 38 0 83 26t56 80l37 219q3 29-17.5 41.5t-39.5 12.5q-60 0-101-44.5t-57-103.5-16-125z"/><glyph unicode="A" horiz-adv-x="1519" d="M18 0l574 1380h336l573-1380h-401l-117 301h-448l-115-301h-402zm596 573h291l-147 451z"/><glyph unicode="B" horiz-adv-x="1339" d="M127 0v1380h655q116 0 205-33.5t141-91 77.5-127 25.5-147.5q0-165-152-246 66-13 117-71t74.5-126 23.5-128q0-70-27.5-140.5t-80-131.5-142-99.5-200.5-38.5h-717zm383 283h281q57 0 89.5 39t32.5 90q0 58-32.5 101.5t-89.5 43.5h-281v-274zm0 548h252q41 0 66.5 43t25.5 84q0 60-31.5 100t-85.5 40h-227v-267z"/><glyph unicode="C" horiz-adv-x="1337" d="M76 690q0 148 51 278t142.5 226.5 229 152.5 300.5 56q112 0 246-30t237-83l-96-243q-32 12-63 21.5t-58 16.5-51 12-45.5 7.5-38 4.5-33 2.5-25.5.5h-32q-79 0-144-24.5t-107.5-65-71.5-95.5-41.5-114-12.5-123q0-80 21-152t64-133 118-97 174-36h42.5l29 1 37.5 3.5 44.5 7.5 55 12.5 65 18.5 78.5 25 90-246q-102-53-236-81.5t-247-28.5q-218 0-384 94.5t-252.5 254-86.5 357.5z"/><glyph unicode="D" horiz-adv-x="1460" d="M127 0v1380h545q343 0 533-175t190-515-190-515-533-175h-545zm381 289h172q149 0 243.5 99.5t94.5 301.5q0 208-93 305t-251 97h-166v-803z"/><glyph unicode="E" horiz-adv-x="1255" d="M127 0v1380h1030v-288h-649v-252h600v-289h-600v-262h661v-289h-1042z"/><glyph unicode="F" horiz-adv-x="1169" d="M127 0v1380h977v-288h-592v-252h545v-289h-545v-553z"/><glyph unicode="G" horiz-adv-x="1468" d="M76 690q0 148 54.5 278t152.5 226.5 244.5 152.5 322.5 56q277 0 516-152l-127-237q-93 56-199 78t-172 22q-88 0-159-24.5t-116.5-65.5-76-96.5-43-114.5-12.5-123q0-79 25.5-152t74.5-132.5 129-95.5 180-36q70 0 156 21v233h-266v277h622v-690q-95-57-253-93t-279-36q-176 0-322.5 54.5t-245 149.5-152.5 223.5-54 276.5z"/><glyph unicode="H" horiz-adv-x="1443" d="M127 0v1380h383v-528h424v528h383v-1380h-383v563h-424v-563h-383z"/><glyph unicode="I" horiz-adv-x="634" d="M127 0v1380h381v-1380h-381z"/><glyph unicode="J" horiz-adv-x="997" d="M14 92l86 248q60-38 138.5-64t134.5-26q121 0 121 166v964h376v-977q0-417-440-417-195 0-416 106z"/><glyph unicode="K" horiz-adv-x="1370" d="M127 0v1380h381v-456l330 456h438l-502-626 582-754h-455l-360 498-33-39v-459h-381z"/><glyph unicode="L" horiz-adv-x="1193" d="M127 0v1380h385v-1089h606v-291h-991z"/><glyph unicode="M" horiz-adv-x="1830" d="M96 0l107 1380h411l301-909q47 135 149 447t155 462h409l107-1380h-373l-47 733-248-733h-303l-244 733-47-733h-377z"/><glyph unicode="N" horiz-adv-x="1452" d="M127 0v1380h440l379-782v782h379v-1380h-422l-397 795v-795h-379z"/><glyph unicode="O" horiz-adv-x="1550" d="M76 690q0 332 187.5 522.5t510.5 190.5q325 0 513-190.5t188-522.5q0-331-187.5-517.5t-513.5-186.5q-324 0-511 186.5t-187 517.5zm393 0q0-124 32.5-217t102-149 170.5-56q150 0 228.5 116t78.5 306q0 118-32.5 213t-103.5 155-171 60-170.5-60-102.5-155-32-213z"/><glyph unicode="P" horiz-adv-x="1284" d="M127 0v1380h655q102 0 184-29.5t133.5-77 86.5-110 49-124 14-124.5q0-15-2-37.5t-12.5-66.5-27.5-86-51.5-88.5-80.5-80.5-118-56.5-160-22.5h-287v-477h-383zm383 766h229q40 0 69.5 17.5t43.5 44.5 20.5 51 6.5 45q0 70-36 119t-106 49h-227v-326z"/><glyph unicode="Q" horiz-adv-x="1529" d="M76 690q0 332 187.5 522.5t510.5 190.5q325 0 513-190.5t188-522.5q0-176-63.5-319.5t-176.5-239.5q11-16 35-24.5t43-8.5h160v-260h-170q-77 0-131 8t-89 26.5-53.5 34.5-42.5 44l-24 41-189-17q-154 0-283 49.5t-220.5 141-143 226-51.5 298.5zm393 0q0-191 78-309.5t227-118.5 228 119 79 309q0 118-32.5 213t-103.5 155-171 60-170.5-60-102.5-155-32-213z"/><glyph unicode="R" horiz-adv-x="1374" d="M127 0v1380h637q114 0 202-27t140-69.5 85-101.5 44.5-116.5 11.5-121.5q0-25-3.5-51.5t-18-67-38-75-68.5-70.5-105-59q26-7 48-21t35-27 26.5-36 18-33.5 13.5-34.5q1-3 2-5.5t2-4.5l180-459h-391l-162 393q-20 52-47 75.5t-67 25.5h-164v-494h-381zm381 782h233q48 0 80 29.5t42.5 61 10.5 59.5q0 68-34.5 114t-98.5 46h-233v-310z"/><glyph unicode="S" horiz-adv-x="1263" d="M55 207l131 262q90-80 227.5-136.5t256.5-56.5q61 0 108 24.5t47 78.5q0 72-65 100l-354 137q-161 63-235.5 159.5t-74.5 201.5q0 195 151 310.5t384 115.5q161 0 276-46t250-147l-108-247q-80 51-147 83t-117.5 43.5-74.5 14-57 2.5h-10q-78 0-124-29t-46-69q0-61 88-103l350-131q83-32 143-75t92.5-91.5 47-96 14.5-99.5q0-103-45-186t-121-134.5-171.5-78.5-202.5-27q-198 0-301 39-200 77-312 182z"/><glyph unicode="T" horiz-adv-x="1210" d="M18 1092v288h1174v-288h-397v-1092h-381v1092h-396z"/><glyph unicode="U" horiz-adv-x="1488" d="M127 621v759h383v-762q0-180 56-268t177-88q125 0 181.5 87.5t56.5 268.5v762h381v-759q0-144-28-254.5t-79.5-184.5-129.5-120.5-171-66.5-211-20q-146 0-256 33.5t-192.5 107-125 200.5-42.5 305z"/><glyph unicode="V" horiz-adv-x="1421" d="M18 1380h394l301-919 299 919h391l-520-1380h-340z"/><glyph unicode="W" horiz-adv-x="1982" d="M18 1380h392l206-860 203 815h346l201-815 201 860h397l-422-1380h-348l-201 793-205-793h-346z"/><glyph unicode="X" horiz-adv-x="1490" d="M18 0l517 682-492 698h436l266-430 267 430h434l-492-698 519-682h-443l-287 430-286-430h-439z"/><glyph unicode="Y" horiz-adv-x="1482" d="M18 1380h437l288-581 283 581h438l-528-891v-489h-387v487z"/><glyph unicode="Z" horiz-adv-x="1277" d="M45 0v248l686 844h-653v288h1155v-241l-698-846h665v-293h-1155z"/><glyph unicode="[" horiz-adv-x="749" d="M117-356v1736h516v-235h-211v-1268h211v-233h-516z"/><glyph unicode="\" horiz-adv-x="845" d="M55 1380h254l482-1380h-252z"/><glyph unicode="]" horiz-adv-x="749" d="M117-123h211v1268h-211v235h516v-1736h-516v233z"/><glyph unicode="^" horiz-adv-x="1003" d="M76 739l317 641h219l316-641h-307l-119 332-121-332h-305z"/><glyph unicode="_" horiz-adv-x="1333" d="M76-25h1181v-233h-1181v233z"/><glyph unicode="`" horiz-adv-x="667" d="M76 1450h354l162-315h-266z"/><glyph unicode="a" horiz-adv-x="1097" d="M59 297q0 305 572 358v31q-4 51-37 70.5t-94 19.5q-69 0-143.5-21.5t-114.5-42.5l-39-22-86 213q0 1 21.5 13t64 30 95 35 124.5 29 143 12h33l62-6.5 84-17.5 86.5-37 81-61.5 56.5-94 23-131.5v-674h-364v129q-33-58-110.5-97.5t-176.5-39.5q-121 0-201 87.5t-80 217.5zm336 14q0-31 19-48t49-17q11 0 28 2.5t42.5 10.5 46.5 20.5 36 35.5 15 52v94q-84-2-160-45.5t-76-104.5z"/><glyph unicode="b" horiz-adv-x="1185" d="M117 0v1380h368v-514q24 66 90.5 109t135.5 43q83 0 156.5-33t130-96 89.5-164.5 33-228.5-31-227-84-161-119-92.5-141-31.5q-173 0-262 129v-113h-366zm368 367q0-30 10-53t24.5-35 34.5-19.5 35.5-9.5 31.5-2q65 0 104 74.5t39 173.5q0 106-43 176.5t-131 70.5q-11 0-26.5-5.5t-34.5-18-31.5-40-12.5-65.5v-247z"/><glyph unicode="c" horiz-adv-x="1026" d="M66 496q0 242 143.5 382t390.5 140q80 0 182.5-25.5t188.5-68.5l-76-236q-22 11-44.5 20t-41.5 15-40.5 10-36 6-33.5 3-27.5 1h-40.5q-98 0-149.5-71.5t-51.5-175.5q0-103 51.5-174.5t149.5-71.5q142 0 264 51l76-233q-87-43-189-68t-182-25q-248 0-391 140t-143 381z"/><glyph unicode="d" horiz-adv-x="1185" d="M66 496q0 127 33 228.5t89.5 164.5 130 96 156.5 33q69 0 135-43t90-109v514h369v-1380h-367v113q-89-129-262-129-75 0-141 31.5t-119 92.5-83.5 161-30.5 227zm356 0q0-99 39-173.5t104-74.5q16 0 31.5 2t35 9.5 34 19.5 24.5 35 10 53v247q0 38-12.5 65.5t-31.5 40-34 18-26 5.5q-88 0-131-70.5t-43-176.5z"/><glyph unicode="e" horiz-adv-x="1150" d="M66 496q0 112 36 208t101 165.5 161.5 109 213.5 39.5q119 0 216-40t160-110.5 97-164 34-201.5q0-53-8-121h-655q11-67 70-106t155-39q129 0 297 59l84-201q-75-46-189-77t-243-31q-125 0-227 40.5t-167.5 111-100.5 162.5-35 196zm352 104h334q-2 73-43.5 124.5t-122.5 51.5q-84 0-127-54-41-52-41-116v-6z"/><glyph unicode="f" horiz-adv-x="679" d="M35 766v225h106v72q0 70 17 126t41.5 90.5 61.5 60 66.5 37 68 18 55.5 7.5 38 1q17 0 44-4t83-22 111-48l-59-199q-45 25-103 25-30 0-43.5-20t-13.5-41v-103h168v-225h-168v-766h-369l2 766h-106z"/><glyph unicode="g" horiz-adv-x="1189" d="M66 496q0 127 31 228.5t85 164.5 123.5 96 149.5 33q82 0 153-40.5t99-111.5v125h366v-1038q0-78-28-139.5t-74.5-99.5-111-62.5-132-34.5-143.5-10q-118 0-238.5 35.5t-183.5 83.5l86 225q59-37 149.5-59.5t165.5-22.5q66 0 110 27t48 86v131q-32-58-82.5-91.5t-103.5-33.5q-66 0-131.5 19t-126.5 59.5-108 99-75 144-28 186.5zm378 0q0-248 154-248 15 0 31 5.5t34.5 18 30 38.5 11.5 61v254q0 120-138 120-44 0-72.5-38t-39.5-91.5-11-119.5z"/><glyph unicode="h" horiz-adv-x="1187" d="M117 0v1380h368v-514q22 57 68 94t82 47.5 63 10.5q177 0 275-107.5t98-337.5v-573h-369v573q0 170-79 170-14 0-29-3t-35.5-13.5-36-27.5-26.5-48.5-11-72.5v-578h-368z"/><glyph unicode="i" horiz-adv-x="602" d="M117 0v991h368v-991h-368zm0 1102v278h368v-278h-368z"/><glyph unicode="j" horiz-adv-x="614" d="M-109-309l56 200 110-30q21-2 35.5 3.5t21.5 14 10.5 24 4 24.5.5 24v1040h367v-1040q0-71-15.5-127.5t-38.5-91.5-58-60.5-64-37-67-17.5-57-7h-13q-14 0-31 1-37 0-107.5 18t-153.5 62zm238 1411v278h369v-278h-369z"/><glyph unicode="k" horiz-adv-x="1136" d="M117 0v1380h368v-604l166 215h441l-390-393 420-598h-411l-226 377v-377h-368z"/><glyph unicode="l" horiz-adv-x="602" d="M117 0v1380h368v-1380h-368z"/><glyph unicode="m" horiz-adv-x="1669" d="M117 0v991h358v-125q18 44 53 76t74 47.5 69.5 22 53.5 6.5q32 0 63.5-6.5t66.5-22 65.5-47.5 50.5-76q52 88 120 120t169 32q52 0 99.5-19.5t92.5-64 72.5-130.5 27.5-204v-600h-366v571q0 172-80 172-8 0-15.5-1.5t-21.5-9.5-24-22-17.5-42.5-7.5-67.5v-600h-365v598q0 145-84 145-34 0-59-42.5t-25-145.5v-555h-370z"/><glyph unicode="n" horiz-adv-x="1187" d="M117 0v991h356v-125q22 44 56 76t69 47.5 61.5 22 45.5 6.5q180 0 273-103t93-346v-569h-369v569q0 179-79 179-16 0-36.5-7.5t-45-25-40.5-54.5-16-88v-573h-368z"/><glyph unicode="o" horiz-adv-x="1165" d="M66 498q0 241 139 380.5t377 139.5 378-139.5 140-380.5q0-240-139.5-376t-378.5-136-377.5 136-138.5 376zm366 0q0-102 40-178t110-76q47 0 82 38t52 95 17 121q0 101-40.5 176.5t-110.5 75.5-110-75.5-40-176.5z"/><glyph unicode="p" horiz-adv-x="1185" d="M117-356v1347h364v-125q33 61 98.5 106.5t125.5 45.5q182 0 298.5-134t116.5-386q0-127-34.5-227t-94.5-161-137.5-92.5-167.5-31.5q-54 0-120.5 36t-82.5 93v-471h-366zm366 737q0-41 13.5-70.5t33-41.5 34-16.5 24.5-4.5q155 0 155 250 0 65-11 118t-39.5 90-71.5 37q-138 0-138-116v-246z"/><glyph unicode="q" horiz-adv-x="1185" d="M66 498q0 252 116.5 386t298.5 134q60 0 125.5-45.5t98.5-106.5v125h364v-1347h-367v471q-16-57-82.5-93t-119.5-36q-90 0-167.5 31.5t-137.5 92.5-94.5 161-34.5 227zm376 0q0-250 156-250 8 0 18 2t26 10.5 28.5 22 22 39 9.5 59.5v246q0 116-137 116-43 0-71.5-37t-40-90-11.5-118z"/><glyph unicode="r" horiz-adv-x="806" d="M127 0v991h356v-160q68 173 211 173h45v-308h-59q-97 0-144-64.5t-47-158.5l3-473h-365z"/><glyph unicode="s" horiz-adv-x="1001" d="M55 145l140 199q103-76 235-104 46-10 80-10 61 0 76 34 5 14 5 26 0 29-34 40l-242 90q-135 57-186 127t-51 162q0 137 118 222t306 85q51 0 88.5-3t93-14.5 115.5-39 125-70.5l-115-209q-141 92-299 92-26 0-40-12-16-13-15-31 0-40 59-59l178-60q150-53 218-177 36-66 36-137 0-64-28-132-43-83-147.5-130.5t-246.5-47.5q-274 0-469 159z"/><glyph unicode="t" horiz-adv-x="786" d="M18 766v225h142v234h381v-234h186v-225h-186v-473q0-53 30-53 68 0 166 39l15-230q-143-72-242-72-18-1-33-1h-14q-20 0-59.5 7t-68.5 19-64 38-57.5 62-38 94.5-15.5 131.5v438h-142z"/><glyph unicode="u" horiz-adv-x="1187" d="M117 422v569h368v-569q0-174 80-174 11 0 22.5 1.5t34 9 38.5 21.5 29 42 13 67v602h369v-991h-356v115q-26-45-62.5-74t-73.5-39.5-54.5-13-32.5-2.5h-8q-48 0-94 12-50 12-100 43.5t-88 79.5-61.5 125.5-23.5 175.5z"/><glyph unicode="v" horiz-adv-x="1214" d="M18 991h390l200-610 201 610h387l-422-991h-332z"/><glyph unicode="w" horiz-adv-x="1662" d="M18 991h385l127-538 125 538h353l127-532 127 532h383l-345-991h-315l-154 487-149-487h-320z"/><glyph unicode="x" horiz-adv-x="1236" d="M18 0l379 502-356 489h418l159-260 154 260h414l-355-489 388-502h-418l-183 276-184-276h-416z"/><glyph unicode="y" horiz-adv-x="1218" d="M18 991h388l208-583 197 583h389l-498-1169q-24-55-67-93.5t-92-55-85.5-23-68.5-6.5q-67 0-211 51l31 225q37-11 100-16 20-2 44 12t34 41l45 104q-75 174-414 930z"/><glyph unicode="z" horiz-adv-x="1015" d="M45 0v213l463 516h-447v262h910v-213l-459-516h442v-262h-909z"/><glyph unicode="{" horiz-adv-x="808" d="M117 434v176q37 3 64 16.5t42 30.5 23.5 43 11 48 2.5 51v319q0 117 81 189.5t210 72.5h182v-229h-139q-20 0-30.5-14t-10.5-35v-328q2-73-43.5-147.5t-110.5-104.5q64-24 110-101t44-151v-348q0-21 10.5-35t32.5-14h137v-229h-182q-129 0-211 72.5t-82 189.5v338q0 38-4.5 65t-17.5 56-43 46.5-76 22.5z"/><glyph unicode="|" horiz-adv-x="483" d="M117-221v1798h250v-1798h-250z"/><glyph unicode="}" horiz-adv-x="808" d="M76-127h137q22 0 32.5 14t10.5 35v348q-2 74 44 151t110 101q-65 30-110.5 104.5t-43.5 147.5v328q0 21-10.5 35t-30.5 14h-139v229h182q129 0 210-72.5t81-189.5v-319q0-29 2.5-51t11-48 23.5-43 42-30.5 64-16.5v-176q-46-5-76-22.5t-43-46.5-17.5-56-4.5-65v-338q0-117-82-189.5t-211-72.5h-182v229z"/><glyph unicode="~" horiz-adv-x="1077" d="M76 381q0 195 79 287t251 92q46 0 126-42t125-42q82 0 82 112h262q0-189-80.5-282.5t-254.5-93.5q-48 0-132 42t-126 42q-30 0-51.5-28t-20.5-87h-260z"/><glyph unicode="¡" horiz-adv-x="645" d="M137 705v286h371v-286h-371zm8-1061l27 946h301l27-946h-355z"/><glyph unicode="¢" horiz-adv-x="1026" d="M66 496q0 192 93 321.5t261 175.5v191h250v-170q162-21 301-90l-76-236q-22 11-44.5 20t-41.5 15-40.5 10-36 6-33.5 3-27.5 1h-40.5q-98 0-149.5-71.5t-51.5-175.5q0-103 51.5-174.5t149.5-71.5q142 0 264 51l76-233q-142-71-301-88v-201h-250v219q-168 44-261 174.5t-93 323.5z"/><glyph unicode="£" horiz-adv-x="1132" d="M35 629v243h149v5q0 111 34.5 199t91.5 141.5 121 84.5 134 41h-2q21 7 115 7 88 0 170-24.5t178-90.5l-104-209q-147 61-244 61-59 0-91-58.5t-32-151.5v-5h305v-243h-305v-389h461v-265h-948v265h116v389h-149z"/><glyph unicode="¤" horiz-adv-x="1093" d="M76 291l117 119q-56 91-56 192 0 113 62 195-18 20-62 64l-61 61 151 161 135-135q88 39 177 39 86 0 178-39l133 131 168-172-131-129q41-78 41-162 0-86-51-188l127-123-166-160-121 123q-90-47-180-47-91 0-172 33l-138-131zm344 311q0-56 34.5-86.5t75.5-30.5q44 0 81.5 31.5t37.5 91.5q0 54-38 84.5t-81 30.5q-41 0-75.5-31.5t-34.5-89.5z"/><glyph unicode="¥" horiz-adv-x="1290" d="M18 1380h402l225-522 227 522h400l-365-673h209v-215h-289v-113h289v-213h-289v-166h-362v166h-295v213h295v113h-295v215h211z"/><glyph unicode="¦" horiz-adv-x="483" d="M117-221v809h250v-809h-250zm0 991v809h250v-809h-250z"/><glyph unicode="§" horiz-adv-x="1021" d="M76 154l137 208q138-114 311-114 38 0 45 20 12 23-16 37l-166 70q-278 112-278 303 0 50 26 106.5t70 98.5q-81 102-64 227 19 116 123.5 186t261.5 70q102 0 197.5-36.5t208.5-112.5l-123-203q-122 82-272 82-21 0-33.5-10.5t-14.5-24.5q-1-13 13.5-22t58.5-25q81-30 121.5-45.5t88-40.5 77.5-51q98-95 98-199 0-139-90-219 62-97 62-185 0-128-110-213.5t-284-85.5q-251 0-448 179zm364 551q0-29 29-57t74-48q35-14 45-16 16 14 28.5 32.5t11.5 41.5-26 36l-145 58q-17-22-17-47z"/><glyph unicode="¨" horiz-adv-x="843" d="M76 1137v278h303v-278h-303zm389 0v278h303v-278h-303z"/><glyph unicode="©" horiz-adv-x="1605" d="M76 688q0 145 57.5 277.5t155 228.5 232 152.5 282.5 56.5 282.5-56.5 232-152.5 155-228.5 57.5-277.5-57.5-277.5-155-228.5-232-152.5-282.5-56.5-282.5 56.5-232 152.5-155 228.5-57.5 277.5zm141-2q0-158 79-292t215.5-212 297.5-78 297.5 78 215.5 212 79 292-79 292-215.5 212-297.5 78-297.5-78-215.5-212-79-292zm189-2q0-178 111-296t296-118q65 0 135 12t113 35l-37 103q-94-33-188-33-77 0-133.5 25t-87.5 69-45.5 94.5-14.5 108.5 15 109 46.5 94.5 88 68.5 133.5 25q96 0 182-35l41 105q-43 23-113 35t-135 12q-185 0-296-118t-111-296z"/><glyph unicode="ª" horiz-adv-x="731" d="M55 1118q0 85 93 137.5t264 67.5q0 66-45 66-39 0-89.5-10.5t-81.5-21.5l-30-11-76 122q0 1 14 12t42 27 63 31 83.5 26 96.5 11h18l40-4 57.5-11.5 59-24.5 57-41 39-63 16.5-88v-436h-268v68q-20-29-72-52.5t-84-23.5q-24 0-49.5 7t-52.5 23.5-47.5 40.5-34 62.5-13.5 85.5zm17-459v162h604v-162h-604zm213 449q0-33 24-33 13 0 33.5 4t45 20.5 24.5 43.5v63q-53-11-90-35t-37-63z"/><glyph unicode="«" horiz-adv-x="1253" d="M96 666l269 475h313l-272-475 272-476h-313zm479 0l269 475h313l-272-475 272-476h-313z"/><glyph unicode="¬" d="M76 571v295h1065v-544h-324v249h-741z"/><glyph unicode="­" horiz-adv-x="952" d="M76 379v303h801v-303h-801z"/><glyph unicode="®" horiz-adv-x="1605" d="M76 688q0 145 57.5 277.5t155 228.5 232 152.5 282.5 56.5 282.5-56.5 232-152.5 155-228.5 57.5-277.5-57.5-277.5-155-228.5-232-152.5-282.5-56.5-282.5 56.5-232 152.5-155 228.5-57.5 277.5zm141-2q0-158 79-292t215.5-212 297.5-78 297.5 78 215.5 212 79 292-79 292-215.5 212-297.5 78-297.5-78-215.5-212-79-292zm279-389v799h354q74 0 127-23t79-62 37-79.5 11-87.5q0-9-1-17.5t-4-29.5-12-40-23-40.5-38.5-39-56.5-28.5q45-21 75-94l109-258h-152l-108 252q-29 57-88 57h-166v-309h-143zm143 426h213q43 0 70 22.5t34 47 7 51.5q0 61-28.5 100t-92.5 39h-203v-260z"/><glyph unicode="¯" horiz-adv-x="743" d="M76 1178v239h592v-239h-592z"/><glyph unicode="°" horiz-adv-x="796" d="M76 1036q0 124 93.5 210.5t227.5 86.5 229-86.5 95-210.5-95-209.5-229-85.5-227.5 85.5-93.5 209.5zm215 0q0-41 31-70.5t75-29.5 75.5 29.5 31.5 70.5-31.5 71-75.5 30-75-30-31-71z"/><glyph unicode="±" horiz-adv-x="1218" d="M76 0v256h1067v-256h-1067zm0 696v260h368v340h332v-340h367v-260h-367v-338h-332v338h-368z"/><glyph unicode="²" horiz-adv-x="776" d="M84 948v111q0 46 17.5 86.5t53.5 75.5 68 59 84 57q38 23 62.5 39.5t50.5 45.5 26 53q0 25-18.5 50t-48.5 25q-37 0-71.5-16t-54-33-44.5-45l-115 111q120 157 291 157 122 0 208.5-71t86.5-183q0-30-8-57t-27.5-52-36.5-42.5-49.5-40-51-34-56.5-34.5q-85-52-117-84h334v-178h-584z"/><glyph unicode="³" horiz-adv-x="692" d="M4 1065l102 119q43-38 94-59t89-21q50 0 71 23.5t21 54.5q0 80-84 80h-102v161h98q82 0 82 76 0 28-18.5 51t-51.5 23q-106 0-176-76l-102 109q119 135 288 135 126 2 208.5-62.5t82.5-177.5q0-89-104-149 54-25 85-73t31-95q0-111-90-180.5t-211-67.5q-176 0-313 129z"/><glyph unicode="´" horiz-adv-x="667" d="M76 1135l162 315h354l-250-315h-266z"/><glyph unicode="¶" horiz-adv-x="1179" d="M55 977q0 167 127 285t307 118h574v-1759h-252v1542h-145v-1542h-252v959q-155 25-257 136.5t-102 260.5z"/><glyph unicode="·" horiz-adv-x="575" d="M96 463v309h383v-309h-383z"/><glyph unicode="¸" horiz-adv-x="552" d="M76-166l96-27q100-30 89 37-8 56-93 176h194q28-33 58.5-85t40.5-87q39-127-22.5-198.5t-194.5-57.5q-83 9-168 48v194z"/><glyph unicode="¹" horiz-adv-x="552" d="M16 1491l234 238h192v-781h-235v500l-80-76z"/><glyph unicode="º" horiz-adv-x="796" d="M55 1237q0 157 91.5 248.5t248.5 91.5q160 0 253-91.5t93-248.5q0-158-93-249t-253-91q-157 0-248.5 91t-91.5 249zm19-578v162h651v-162h-651zm245 578q0-60 21-106t55-46q35 0 57.5 46t22.5 106q0 59-22.5 104t-57.5 45q-34 0-55-45t-21-104z"/><glyph unicode="»" horiz-adv-x="1253" d="M96 190l273 476-273 475h314l268-475-268-476h-314zm479 0l273 476-273 475h314l268-475-268-476h-314z"/><glyph unicode="¼" horiz-adv-x="1585" d="M63 1139l234 237h192v-780h-235v500l-80-76zm189-1139l815 1380h164l-813-1380h-166zm614 135v146q52 126 145.5 261.5t194.5 237.5h215v-465h99v-180h-99v-135l-239 2v133h-316zm178 180h138v205q-32-32-75.5-95t-62.5-110z"/><glyph unicode="½" horiz-adv-x="1626" d="M94 1139l234 237h192v-780h-235v500l-80-76zm189-1139l815 1380h164l-813-1380h-166zm661 0h574v178h-334q34 34 116 84 39 23 56.5 34t51 34 50 40.5 36.5 42.5 28 52 8 57q0 112-86.5 183t-208.5 71q-170 0-291-158l115-110q76 84 170 84 30 0 48.5-21t18.5-45q0-19-12.5-38.5t-37.5-38.5-42.5-31-46.5-29q-49-31-82-56.5t-66-60-49-75-16-86.5v-111z"/><glyph unicode="¾" horiz-adv-x="1617" d="M39 713l102 118q43-38 94-58.5t89-20.5q50 0 71 23t21 54q0 80-84 80h-103v162h99q82 0 82 76 0 28-18.5 51t-51.5 23q-106 0-176-76l-103 108q120 136 289 136 126 2 208.5-62.5t82.5-177.5q0-90-104-150 54-25 85-73t31-95q0-111-90-180t-211-67q-176 0-313 129zm305-713l815 1380h164l-813-1380h-166zm580 135v146q52 126 145.5 261.5t194.5 237.5h215v-465h98v-180h-98v-135l-240 2v133h-315zm178 180h137v205q-31-31-74.5-94.5t-62.5-110.5z"/><glyph unicode="¿" horiz-adv-x="1038" d="M76 31q0-103 39.5-184t108-131.5 157-76.5 190.5-26q82 0 155 20.5t122 50 91.5 69 64 69 38.5 59.5l-213 168q-31-63-102.5-115.5t-148.5-52.5q-60 0-97 41.5t-37 95.5q0 87 62 140 27 24 69 61t57.5 50.5 42 40 34 37.5 22 36 17 41.5 8 47.5 6 61.5.5 76.5h-322q0-41-3.5-67.5t-14.5-44.5-18-25.5-28.5-22-31.5-22.5q-108-69-188-174t-80-223zm336 671v289h370v-289h-370z"/><glyph unicode="À" horiz-adv-x="1519" d="M18 0l574 1380h336l573-1380h-401l-117 301h-448l-115-301h-402zm404 1839h354l162-315h-266zm192-1266h291l-147 451z"/><glyph unicode="Á" horiz-adv-x="1519" d="M18 0l574 1380h336l573-1380h-401l-117 301h-448l-115-301h-402zm584 1524l162 315h354l-250-315h-266zm12-951h291l-147 451z"/><glyph unicode="Â" horiz-adv-x="1519" d="M18 0l574 1380h336l573-1380h-401l-117 301h-448l-115-301h-402zm359 1513l223 342h315l226-342h-303l-82 173-74-173h-305zm237-940h291l-147 451z"/><glyph unicode="Ã" horiz-adv-x="1519" d="M18 0l574 1380h336l573-1380h-401l-117 301h-448l-115-301h-402zm416 1503q0 163 46.5 242.5t168.5 79.5q36 0 105-33 5-3 20-11t23-12 20.5-8 22.5-4q30 0 43 22.5t10 59.5h190q0-53-4.5-96t-19-86.5-37.5-72.5-63-47.5-93-18.5q-46 0-104 36-7 4-20.5 12.5t-20 12-17.5 7-22 3.5q-56 0-61-86h-187zm180-930h291l-147 451z"/><glyph unicode="Ä" horiz-adv-x="1519" d="M18 0l574 1380h336l573-1380h-401l-117 301h-448l-115-301h-402zm396 1501v279h303v-279h-303zm200-928h291l-147 451zm189 928v279h303v-279h-303z"/><glyph unicode="Å" horiz-adv-x="1519" d="M18 0l574 1380h336l573-1380h-401l-117 301h-448l-115-301h-402zm512 1751q0 92 56 152.5t174 60.5q63 0 109-17t71.5-47.5 37-67 11.5-81.5q0-96-53.5-154.5t-175.5-58.5q-118 0-174 60t-56 153zm84-1178h291l-147 451zm88 1178q0-68 56-68 55 0 55 68 0 66-55 66-56 0-56-66z"/><glyph unicode="Æ" horiz-adv-x="1978" d="M14 0l693 1380h1171v-288h-645v-252h600v-289h-602v-262h661v-289h-1044v291h-273l-141-291h-420zm645 575h189v500z"/><glyph unicode="Ç" horiz-adv-x="1337" d="M76 690q0 148 51 278t142.5 226.5 229 152.5 300.5 56q112 0 246-30t237-83l-96-243q-32 12-63 21.5t-58 16.5-51 12-45.5 7.5-38 4.5-33 2.5-25.5.5h-32q-79 0-144-24.5t-107.5-65-71.5-95.5-41.5-114-12.5-123q0-80 21-152t64-133 118-97 174-36h42.5l29 1 37.5 3.5 44.5 7.5 55 12.5 65 18.5 78.5 25 90-246q-93-48-213-75.5t-231-32.5q50-72 71-138 39-127-22.5-198.5t-194.5-57.5q-83 9-168 48v194l97-27q101-30 88 40-9 51-78 153-171 33-297.5 131.5t-192 242.5-65.5 316z"/><glyph unicode="È" horiz-adv-x="1255" d="M127 0v1380h1030v-288h-649v-252h600v-289h-600v-262h661v-289h-1042zm145 1839h355l161-315h-266z"/><glyph unicode="É" horiz-adv-x="1255" d="M127 0v1380h1030v-288h-649v-252h600v-289h-600v-262h661v-289h-1042zm307 1524l162 315h334l-238-315h-258z"/><glyph unicode="Ê" horiz-adv-x="1255" d="M127 0v1380h1030v-288h-649v-252h600v-289h-600v-262h661v-289h-1042zm119 1513l223 342h315l226-342h-303l-82 173-74-173h-305z"/><glyph unicode="Ë" horiz-adv-x="1255" d="M127 0v1380h1030v-288h-649v-252h600v-289h-600v-262h661v-289h-1042zm154 1526v278h303v-278h-303zm389 0v278h303v-278h-303z"/><glyph unicode="Ì" horiz-adv-x="634" d="M-10 1839h354l162-315h-266zm137-1839v1380h381v-1380h-381z"/><glyph unicode="Í" horiz-adv-x="634" d="M123 1524l162 315h354l-250-315h-266zm4-1524v1380h381v-1380h-381z"/><glyph unicode="Î" horiz-adv-x="634" d="M-63 1513l223 342h315l225-342h-303l-82 173-73-173h-305zm190-1513v1380h381v-1380h-381z"/><glyph unicode="Ï" horiz-adv-x="634" d="M-29 1526v278h303v-278h-303zm156-1526v1380h381v-1380h-381zm233 1526v278h304v-278h-304z"/><glyph unicode="Ð" horiz-adv-x="1527" d="M18 555v276h185v549h547q341 0 532-175.5t191-514.5-191-514.5-532-175.5h-547v555h-185zm566-266h174q70 0 129.5 23t106.5 70 73.5 125.5 26.5 182.5q0 208-92 305t-250 97h-168v-261h309v-276h-309v-266z"/><glyph unicode="Ñ" horiz-adv-x="1452" d="M127 0v1380h440l379-782v782h379v-1380h-422l-397 795v-795h-379zm274 1503q0 163 46.5 242.5t168.5 79.5q36 0 105-33 5-3 20-11t23-12 20.5-8 22.5-4q30 0 43 22.5t10 59.5h191q0-53-4.5-96t-19-86.5-37.5-72.5-63-47.5-93-18.5q-47 0-105 36-7 4-20.5 12.5t-20 12-17.5 7-22 3.5q-56 0-61-86h-187z"/><glyph unicode="Ò" horiz-adv-x="1550" d="M76 690q0 332 187.5 522.5t510.5 190.5q325 0 513-190.5t188-522.5q0-331-187.5-517.5t-513.5-186.5q-324 0-511 186.5t-187 517.5zm340 1149h354l162-315h-266zm53-1149q0-124 32.5-217t102-149 170.5-56q150 0 228.5 116t78.5 306q0 118-32.5 213t-103.5 155-171 60-170.5-60-102.5-155-32-213z"/><glyph unicode="Ó" horiz-adv-x="1550" d="M76 690q0-331 187-517.5t511-186.5q326 0 513.5 186.5t187.5 517.5q0 332-188 522.5t-513 190.5q-323 0-510.5-190.5t-187.5-522.5zm393 0q0 118 32 213t102.5 155 170.5 60 171-60 103.5-155 32.5-213q0-190-78.5-306t-228.5-116q-101 0-170.5 56t-102 149-32.5 217zm141 834l162 315h354l-249-315h-267z"/><glyph unicode="Ô" horiz-adv-x="1550" d="M76 690q0 332 187.5 522.5t510.5 190.5q325 0 513-190.5t188-522.5q0-331-187.5-517.5t-513.5-186.5q-324 0-511 186.5t-187 517.5zm317 823l223 342h316l225-342h-303l-82 173-74-173h-305zm76-823q0-124 32.5-217t102-149 170.5-56q150 0 228.5 116t78.5 306q0 118-32.5 213t-103.5 155-171 60-170.5-60-102.5-155-32-213z"/><glyph unicode="Õ" horiz-adv-x="1550" d="M76 690q0 332 187.5 522.5t510.5 190.5q325 0 513-190.5t188-522.5q0-331-187.5-517.5t-513.5-186.5q-324 0-511 186.5t-187 517.5zm375 813q0 163 46.5 242.5t168.5 79.5q35 0 104-33 5-3 20-11t23-12 20.5-8 22.5-4q30 0 43 22.5t10 59.5h191q0-53-4.5-96t-19-86.5-37.5-72.5-63-47.5-93-18.5q-47 0-105 36-7 4-20.5 12.5t-20 12-17.5 7-22 3.5q-56 0-61-86h-186zm18-813q0-124 32.5-217t102-149 170.5-56q150 0 228.5 116t78.5 306q0 118-32.5 213t-103.5 155-171 60-170.5-60-102.5-155-32-213z"/><glyph unicode="Ö" horiz-adv-x="1550" d="M76 690q0-331 187-517.5t511-186.5q326 0 513.5 186.5t187.5 517.5q0 332-188 522.5t-513 190.5q-323 0-510.5-190.5t-187.5-522.5zm352 811v279h303v-279h-303zm41-811q0 118 32 213t102.5 155 170.5 60 171-60 103.5-155 32.5-213q0-190-78.5-306t-228.5-116q-101 0-170.5 56t-102 149-32.5 217zm348 811v279h303v-279h-303z"/><glyph unicode="×" horiz-adv-x="1253" d="M76 297l342 340-342 340 211 211 340-342 340 340 211-209-340-340 340-338-211-211-340 338-340-340z"/><glyph unicode="Ø" horiz-adv-x="1550" d="M76 690q0 332 187.5 522.5t510.5 190.5q172 0 311-57l80 120h258l-157-237q209-185 209-539 0-332-188-523.5t-513-191.5q-165 0-295 48l-88-132h-256l160 244q-219 191-219 555zm393 0q0-140 37-233l407 624q-66 37-139 37-100 0-170.5-60t-102.5-155-32-213zm184-403q54-29 121-29 149 0 228 120.5t79 311.5q0 130-30 207z"/><glyph unicode="Ù" horiz-adv-x="1488" d="M127 621v759h383v-762q0-180 56-268t177-88q125 0 181.5 87.5t56.5 268.5v762h381v-759q0-144-28-254.5t-79.5-184.5-129.5-120.5-171-66.5-211-20q-146 0-256 33.5t-192.5 107-125 200.5-42.5 305zm279 1218h354l162-315h-267z"/><glyph unicode="Ú" horiz-adv-x="1488" d="M127 621q0-178 42.5-305t125-200.5 192.5-107 256-33.5q118 0 211 20t171 66.5 129.5 120.5 79.5 184.5 28 254.5v759h-381v-762q0-181-56.5-268.5t-181.5-87.5q-121 0-177 88t-56 268v762h-383v-759zm436 903l162 315h354l-250-315h-266z"/><glyph unicode="Û" horiz-adv-x="1488" d="M127 621v759h383v-762q0-180 56-268t177-88q125 0 181.5 87.5t56.5 268.5v762h381v-759q0-144-28-254.5t-79.5-184.5-129.5-120.5-171-66.5-211-20q-146 0-256 33.5t-192.5 107-125 200.5-42.5 305zm235 892l224 342h315l225-342h-303l-82 173-73-173h-306z"/><glyph unicode="Ü" horiz-adv-x="1488" d="M127 621q0-178 42.5-305t125-200.5 192.5-107 256-33.5q118 0 211 20t171 66.5 129.5 120.5 79.5 184.5 28 254.5v759h-381v-762q0-181-56.5-268.5t-181.5-87.5q-121 0-177 88t-56 268v762h-383v-759zm270 880v279h303v-279h-303zm389 0v279h304v-279h-304z"/><glyph unicode="Ý" horiz-adv-x="1482" d="M18 1380l531-893v-487h387v489l528 891h-438l-283-581-288 581h-437zm557 144l162 315h355l-250-315h-267z"/><glyph unicode="Þ" horiz-adv-x="1239" d="M127 0v1380h381v-295q48 61 107.5 90t105.5 29q88 0 167.5-33t144.5-96.5 103-168.5 38-238-38-237-105.5-169-155-98-191.5-33q-44 0-96.5 28t-81.5 85v-244h-379zm381 528q0-37 15-62.5t40-36.5 46-15 44-4q46 0 76 38.5t41.5 94 11.5 125.5q0 260-164 260-10 0-19.5-1.5t-27.5-10.5-30.5-24-22.5-46.5-10-73.5v-244z"/><glyph unicode="ß" horiz-adv-x="1239" d="M100 0v907q3 214 131 342.5t351 128.5q66 0 132-11.5t133.5-40 119-71 84-109 32.5-149.5q0-73-33.5-130t-121.5-103q78-30 131-89.5t73.5-122.5 20.5-128q0-79-32-153t-92-135.5-158.5-98.5-219.5-37h-78v266h78q68 0 111 54t43 118q0 41-9.5 76.5t-29.5 67.5-58.5 50.5-91.5 18.5q-9 0-16.5 1t-17.5 1v203h32q55 0 81 40t26 101q0 52-34 85.5t-105 33.5q-56 0-83.5-56.5t-27.5-152.5v-907h-371z"/><glyph unicode="à" horiz-adv-x="1097" d="M59 297q0 305 572 358v31q-4 51-37 70.5t-94 19.5q-69 0-143.5-21.5t-114.5-42.5l-39-22-86 213q0 1 21.5 13t64 30 95 35 124.5 29 143 12h33l62-6.5 84-17.5 86.5-37 81-61.5 56.5-94 23-131.5v-674h-364v129q-33-58-110.5-97.5t-176.5-39.5q-121 0-201 87.5t-80 217.5zm123 1153h355l161-315h-266zm213-1139q0-31 19-48t49-17q11 0 28 2.5t42.5 10.5 46.5 20.5 36 35.5 15 52v94q-84-2-160-45.5t-76-104.5z"/><glyph unicode="á" horiz-adv-x="1097" d="M59 297q0-130 80-217.5t201-87.5q99 0 176.5 39.5t110.5 97.5v-129h364v674q0 73-23 131.5t-56.5 94-81 61.5-86 37-84 17.5-62.5 6.5h-33q-71 0-143-12t-124.5-29-95-35-64-30-21.5-13l86-213q16 10 43.5 24t106 38 147.5 24q61 0 94-19.5t37-70.5v-31q-572-53-572-358zm306 838l161 315h355l-250-315h-266zm30-824q0 61 76 104.5t160 45.5v-94q0-29-15-52t-36-35.5-46.5-20.5-42.5-10.5-28-2.5q-30 0-49 17t-19 48z"/><glyph unicode="â" horiz-adv-x="1097" d="M59 297q0 305 572 358v31q-4 51-37 70.5t-94 19.5q-69 0-143.5-21.5t-114.5-42.5l-39-22-86 213q0 1 21.5 13t64 30 95 35 124.5 29 143 12h33l62-6.5 84-17.5 86.5-37 81-61.5 56.5-94 23-131.5v-674h-364v129q-33-58-110.5-97.5t-176.5-39.5q-121 0-201 87.5t-80 217.5zm107 827l223 342h316l225-342h-303l-82 172-74-172h-305zm229-813q0-31 19-48t49-17q11 0 28 2.5t42.5 10.5 46.5 20.5 36 35.5 15 52v94q-84-2-160-45.5t-76-104.5z"/><glyph unicode="ã" horiz-adv-x="1097" d="M59 297q0 305 572 358v31q-4 51-37 70.5t-94 19.5q-69 0-143.5-21.5t-114.5-42.5l-39-22-86 213q0 1 21.5 13t64 30 95 35 124.5 29 143 12h33l62-6.5 84-17.5 86.5-37 81-61.5 56.5-94 23-131.5v-674h-364v129q-33-58-110.5-97.5t-176.5-39.5q-121 0-201 87.5t-80 217.5zm164 817q0 163 46.5 242.5t168.5 79.5q36 0 105-33 5-3 20-11t23-12 20.5-8 22.5-4q30 0 43 22.5t10 59.5h190q0-68-8.5-120t-30.5-100.5-67-75-111-26.5q-44 0-104 37-7 4-20.5 12.5t-20 12-17.5 7-22 3.5q-56 0-61-86h-187zm172-803q0-31 19-48t49-17q11 0 28 2.5t42.5 10.5 46.5 20.5 36 35.5 15 52v94q-84-2-160-45.5t-76-104.5z"/><glyph unicode="ä" horiz-adv-x="1097" d="M59 297q0-130 80-217.5t201-87.5q99 0 176.5 39.5t110.5 97.5v-129h364v674q0 73-23 131.5t-56.5 94-81 61.5-86 37-84 17.5-62.5 6.5h-33q-71 0-143-12t-124.5-29-95-35-64-30-21.5-13l86-213q16 10 43.5 24t106 38 147.5 24q61 0 94-19.5t37-70.5v-31q-572-53-572-358zm144 840v278h303v-278h-303zm192-826q0 61 76 104.5t160 45.5v-94q0-29-15-52t-36-35.5-46.5-20.5-42.5-10.5-28-2.5q-30 0-49 17t-19 48zm197 826v278h303v-278h-303z"/><glyph unicode="å" horiz-adv-x="1097" d="M59 297q0 305 572 358v31q-4 51-37 70.5t-94 19.5q-69 0-143.5-21.5t-114.5-42.5l-39-22-86 213q0 1 21.5 13t64 30 95 35 124.5 29 143 12h33l62-6.5 84-17.5 86.5-37 81-61.5 56.5-94 23-131.5v-674h-364v129q-33-58-110.5-97.5t-176.5-39.5q-121 0-201 87.5t-80 217.5zm260 1065q0 92 56 152.5t174 60.5q63 0 109-17t71.5-47.5 37-67 11.5-81.5q0-96-53.5-154.5t-175.5-58.5q-118 0-174 60t-56 153zm76-1051q0-31 19-48t49-17q11 0 28 2.5t42.5 10.5 46.5 20.5 36 35.5 15 52v94q-84-2-160-45.5t-76-104.5zm97 1051q0-68 55-68t55 68q0 65-55 65t-55-65z"/><glyph unicode="æ" horiz-adv-x="1722" d="M55 297q0 305 572 358v31q-4 51-37 70.5t-94 19.5q-69 0-143.5-21.5t-114.5-42.5l-39-22-86 213q0 1 21.5 13t64 30 95 35 124.5 29 143 12q161 0 272-94 14-12 27-25 118 115 289 115 158 0 275-69.5t175-185.5 58-261q0-53-8-121h-656q11-67 70.5-106t155.5-39q129 0 297 59l83-201q-75-46-189-77t-243-31q-247 0-393 149-19-26-43-47.5t-53-36-55-25.5-62-17-59-10-61-5-54-1.5-51-.5q-121 0-201 87.5t-80 217.5zm336 14q0-31 19-48t49-17q11 0 28 2.5t42.5 10.5 46.5 20.5 36 35.5 15 52v94q-84-2-160-45.5t-76-104.5zm598 289h334q-2 73-43.5 124.5t-122.5 51.5q-84 0-127-54.5t-41-121.5z"/><glyph unicode="ç" horiz-adv-x="1026" d="M66 496q0 242 143.5 382t390.5 140q80 0 182.5-25.5t188.5-68.5l-76-236q-22 11-44.5 20t-41.5 15-40.5 10-36 6-33.5 3-27.5 1h-40.5q-98 0-149.5-71.5t-51.5-175.5q0-103 51.5-174.5t149.5-71.5q142 0 264 51l76-233q-138-70-307-88 51-75 67-132 39-127-22.5-198.5t-194.5-57.5q-83 9-168 48v194l96-27q171-49 17 183-185 35-289 168t-104 338z"/><glyph unicode="è" horiz-adv-x="1150" d="M66 496q0 112 36 208t101 165.5 161.5 109 213.5 39.5q119 0 216-40t160-110.5 97-164 34-201.5q0-53-8-121h-655q11-67 70-106t155-39q129 0 297 59l84-201q-75-46-189-77t-243-31q-125 0-227 40.5t-167.5 111-100.5 162.5-35 196zm135 954h354l162-315h-266zm217-850h334q-2 73-43.5 124.5t-122.5 51.5q-84 0-127-54.5t-41-121.5z"/><glyph unicode="é" horiz-adv-x="1150" d="M66 496q0-104 35-196t100.5-162.5 167.5-111 227-40.5q129 0 243 31t189 77l-84 201q-168-59-297-59-96 0-155 39t-70 106h655q8 68 8 121 0 108-34 201.5t-97 164-160 110.5-216 40q-117 0-213.5-39.5t-161.5-109-101-165.5-36-208zm346 639l161 315h355l-250-315h-266zm6-535q-2 67 41 121.5t127 54.5q81 0 122.5-51.5t43.5-124.5h-334z"/><glyph unicode="ê" horiz-adv-x="1150" d="M66 496q0 112 36 208t101 165.5 161.5 109 213.5 39.5q119 0 216-40t160-110.5 97-164 34-201.5q0-53-8-121h-655q11-67 70-106t155-39q129 0 297 59l84-201q-75-46-189-77t-243-31q-125 0-227 40.5t-167.5 111-100.5 162.5-35 196zm127 628l223 342h315l225-342h-303l-82 172-73-172h-305zm225-524h334q-2 73-43.5 124.5t-122.5 51.5q-84 0-127-54.5t-41-121.5z"/><glyph unicode="ë" horiz-adv-x="1150" d="M66 496q0-104 35-196t100.5-162.5 167.5-111 227-40.5q129 0 243 31t189 77l-84 201q-168-59-297-59-96 0-155 39t-70 106h655q8 68 8 121 0 108-34 201.5t-97 164-160 110.5-216 40q-117 0-213.5-39.5t-161.5-109-101-165.5-36-208zm163 641v278h303v-278h-303zm189-537q-2 67 41 121.5t127 54.5q81 0 122.5-51.5t43.5-124.5h-334zm200 537v278h304v-278h-304z"/><glyph unicode="ì" horiz-adv-x="602" d="M-31 1450h355l161-315h-266zm148-1450v991h368v-991h-368z"/><glyph unicode="í" horiz-adv-x="602" d="M117 0v991h368v-991h-368zm0 1135l162 315h354l-250-315h-266z"/><glyph unicode="î" horiz-adv-x="602" d="M-80 1124l223 342h316l225-342h-303l-82 172-74-172h-305zm197-1124v991h368v-991h-368z"/><glyph unicode="ï" horiz-adv-x="602" d="M-45 1137v278h303v-278h-303zm162-1137v991h368v-991h-368zm227 1137v278h303v-278h-303z"/><glyph unicode="ð" horiz-adv-x="1142" d="M55 492q0 122 65 227t167.5 164 212.5 59q13 0 22.5-1t13.5-2 13.5-4 15.5-5q-34 101-162 153l-153-159-137 127 118 125q-32 28-118 81l188 177q68-20 135-62l131 131 148-121-119-114q85-50 172-137t158-190.5 116-223 45-225.5q0-238-139.5-375t-376.5-137q-239 0-377.5 137t-138.5 375zm381 0q0-94 35.5-163t99.5-69q63 0 100.5 70t37.5 162q0 95-37.5 165t-100.5 70q-64 0-99.5-69.5t-35.5-165.5z"/><glyph unicode="ñ" horiz-adv-x="1187" d="M117 0v991h356v-125q22 44 56 76t69 47.5 61.5 22 45.5 6.5q180 0 273-103t93-346v-569h-369v569q0 179-79 179-16 0-36.5-7.5t-45-25-40.5-54.5-16-88v-573h-368zm151 1114q0 163 46.5 242.5t168.5 79.5q36 0 105-33 5-3 20-11t23-12 20.5-8 22.5-4q30 0 43 22.5t10 59.5h191q0-68-8.5-120t-31-100.5-67.5-75-111-26.5q-44 0-104 37-7 4-20.5 12.5t-20 12-17.5 7-22 3.5q-56 0-61-86h-187z"/><glyph unicode="ò" horiz-adv-x="1165" d="M66 498q0 241 139 380.5t377 139.5 378-139.5 140-380.5q0-240-139.5-376t-378.5-136-377.5 136-138.5 376zm149 952h354l162-315h-266zm217-952q0-102 40-178t110-76q47 0 82 38t52 95 17 121q0 101-40.5 176.5t-110.5 75.5-110-75.5-40-176.5z"/><glyph unicode="ó" horiz-adv-x="1165" d="M66 498q0-240 138.5-376t377.5-136 378.5 136 139.5 376q0 241-140 380.5t-378 139.5-377-139.5-139-380.5zm366 0q0 101 40 176.5t110 75.5 110.5-75.5 40.5-176.5q0-64-17-121t-52-95-82-38q-70 0-110 76t-40 178zm0 637l162 315h354l-250-315h-266z"/><glyph unicode="ô" horiz-adv-x="1165" d="M66 498q0 241 139 380.5t377 139.5 378-139.5 140-380.5q0-240-139.5-376t-378.5-136-377.5 136-138.5 376zm135 626l223 342h315l226-342h-303l-82 172-74-172h-305zm231-626q0-102 40-178t110-76q47 0 82 38t52 95 17 121q0 101-40.5 176.5t-110.5 75.5-110-75.5-40-176.5z"/><glyph unicode="õ" horiz-adv-x="1165" d="M66 498q0 241 139 380.5t377 139.5 378-139.5 140-380.5q0-240-139.5-376t-378.5-136-377.5 136-138.5 376zm192 616q0 163 46.5 242.5t168.5 79.5q36 0 105-33 5-3 20-11t23-12 20.5-8 22.5-4q30 0 43 22.5t10 59.5h190q0-68-8.5-120t-30.5-100.5-67-75-111-26.5q-44 0-104 37-7 4-20.5 12.5t-20 12-17.5 7-22 3.5q-57 0-62-86h-186zm174-616q0-102 40-178t110-76q47 0 82 38t52 95 17 121q0 101-40.5 176.5t-110.5 75.5-110-75.5-40-176.5z"/><glyph unicode="ö" horiz-adv-x="1165" d="M66 498q0-240 138.5-376t377.5-136 378.5 136 139.5 376q0 241-140 380.5t-378 139.5-377-139.5-139-380.5zm170 639v278h303v-278h-303zm196-639q0 101 40 176.5t110 75.5 110.5-75.5 40.5-176.5q0-64-17-121t-52-95-82-38q-70 0-110 76t-40 178zm193 639v278h303v-278h-303z"/><glyph unicode="÷" horiz-adv-x="1214" d="M76 545v274h1063v-274h-1063zm327-385v293h383v-293h-383zm0 760v294h383v-294h-383z"/><glyph unicode="ø" horiz-adv-x="1165" d="M66 498q0 241 139 380.5t377 139.5q134 0 243-47l49 69h189l-111-155q148-142 148-387 0-240-139.5-376t-378.5-136q-134 0-238 43l-57-82h-187l115 164q-149 137-149 387zm366 0q0-36 6-74l213 301q-36 25-69 25-70 0-110-75.5t-40-176.5zm82-232q28-22 68-22 47 0 82 38t52 95 17 121q0 37-6 67z"/><glyph unicode="ù" horiz-adv-x="1187" d="M117 422v569h368v-569q0-174 80-174 11 0 22.5 1.5t34 9 38.5 21.5 29 42 13 67v602h369v-991h-356v115q-26-45-62.5-74t-73.5-39.5-54.5-13-32.5-2.5q-52-1-101.5 11.5t-100 44-88.5 79.5-61.5 125.5-23.5 175.5zm137 1028h354l162-315h-266z"/><glyph unicode="ú" horiz-adv-x="1187" d="M117 422v569h368v-569q0-174 80-174 11 0 22.5 1.5t34 9 38.5 21.5 29 42 13 67v602h369v-991h-356v115q-26-45-62.5-74t-73.5-39.5-54.5-13-32.5-2.5q-52-1-101.5 11.5t-100 44-88.5 79.5-61.5 125.5-23.5 175.5zm272 713l162 315h354l-250-315h-266z"/><glyph unicode="û" horiz-adv-x="1187" d="M117 422v569h368v-569q0-174 80-174 11 0 22.5 1.5t34 9 38.5 21.5 29 42 13 67v602h369v-991h-356v115q-26-45-62.5-74t-73.5-39.5-54.5-13-32.5-2.5q-52-1-101.5 11.5t-100 44-88.5 79.5-61.5 125.5-23.5 175.5zm94 702l223 342h316l225-342h-303l-82 172-74-172h-305z"/><glyph unicode="ü" horiz-adv-x="1187" d="M117 422v569h368v-569q0-174 80-174 11 0 22.5 1.5t34 9 38.5 21.5 29 42 13 67v602h369v-991h-356v115q-26-45-62.5-74t-73.5-39.5-54.5-13-32.5-2.5q-52-1-101.5 11.5t-100 44-88.5 79.5-61.5 125.5-23.5 175.5zm131 715v278h303v-278h-303zm389 0v278h303v-278h-303z"/><glyph unicode="ý" horiz-adv-x="1218" d="M18 991h388l208-583 197 583h389l-498-1169q-24-55-67-93.5t-92-55-85.5-23-68.5-6.5q-67 0-211 51l31 225q37-11 100-16 20-2 44 12t34 41l45 104q-75 174-414 930zm400 144l162 315h354l-250-315h-266z"/><glyph unicode="þ" horiz-adv-x="1198" d="M127-356v1714h369v-473q64 133 200 133 91 0 169.5-33t138.5-96 94.5-164 34.5-229q0-253-120.5-381.5t-322.5-128.5q-11 0-30.5 3t-54 12.5-65.5 34.5-46 62v-454h-367zm369 723q0-31 10-53t23-33 34.5-17 34.5-7 33-1q65 0 95 68t30 172q0 247-154 247-12 0-26-4t-34-16-33-41-13-72v-243z"/><glyph unicode="ÿ" horiz-adv-x="1218" d="M18 991h388l208-583 197 583h389l-498-1169q-24-55-67-93.5t-92-55-85.5-23-68.5-6.5q-67 0-211 51l31 225q37-11 100-16 20-2 44 12t34 41l45 104q-75 174-414 930zm244 146v278h303v-278h-303zm389 0v278h303v-278h-303z"/><glyph unicode="Œ" horiz-adv-x="2213" d="M76 690q0 164 50 298.5t139 225 212 140 268 49.5q202 0 338-139v116h1031v-288h-648v-252h598v-289h-598v-262h662v-289h-1045v102q-59-56-152-87t-186-31q-304 0-486.5 188.5t-182.5 517.5zm389 0q0-190 79-306t230-116q150 0 228.5 116t78.5 306q0 118-32.5 213t-103.5 155-171 60q-76 0-136-34.5t-97-94-56.5-136-19.5-163.5z"/><glyph unicode="œ" horiz-adv-x="1830" d="M66 498q0 241 139 380.5t377 139.5q207 0 344-109 135 109 331 109 158 0 275-69.5t175-185.5 58-261q0-53-8-121h-655q42-145 225-145h47.5l30 1.5 37 4 39.5 7.5 46.5 12 49 18.5 55.5 25.5 84-211q-74-45-192-76.5t-248-31.5q-208 0-348 108-132-108-346-108-239 0-377.5 136t-138.5 376zm366 0q0-102 40-178t110-76q47 0 82 38t52 95 17 121q0 101-40.5 176.5t-110.5 75.5-110-75.5-40-176.5zm666 108h334q-1 64-50 103t-116 39q-66 0-117.5-42.5t-50.5-99.5z"/><glyph unicode="Ÿ" horiz-adv-x="1482" d="M18 1380l531-893v-487h387v489l528 891h-438l-283-581-288 581h-437zm377 146v278h303v-278h-303zm389 0v278h303v-278h-303z"/><glyph unicode="ˆ" horiz-adv-x="915" d="M76 1124l223 342h315l226-342h-303l-82 172-74-172h-305z"/><glyph unicode="˜" horiz-adv-x="800" d="M76 1114q0 163 46.5 242.5t168.5 79.5q35 0 104-33 5-3 20-11t23-12 20.5-8 22.5-4q30 0 43.5 22.5t10.5 59.5h190q0-68-8.5-120t-30.5-100.5-67-75-111-26.5q-45 0-105 37-7 4-20.5 12.5t-20 12-17 7-21.5 3.5q-57 0-62-86h-186z"/><glyph horiz-adv-x="982"/><glyph horiz-adv-x="1964"/><glyph horiz-adv-x="982"/><glyph horiz-adv-x="1964"/><glyph horiz-adv-x="654"/><glyph horiz-adv-x="491"/><glyph horiz-adv-x="327"/><glyph horiz-adv-x="327"/><glyph horiz-adv-x="245"/><glyph horiz-adv-x="392"/><glyph horiz-adv-x="109"/><glyph unicode="‐" horiz-adv-x="952" d="M76 379v303h801v-303h-801z"/><glyph unicode="‑" horiz-adv-x="952" d="M76 379v303h801v-303h-801z"/><glyph unicode="‒" horiz-adv-x="952" d="M76 379v303h801v-303h-801z"/><glyph unicode="–" horiz-adv-x="1206" d="M76 381v289h1054v-289h-1054z"/><glyph unicode="—" horiz-adv-x="1523" d="M76 383v287h1372v-287h-1372z"/><glyph unicode="‘" horiz-adv-x="782" d="M76 893l321 487h310l-252-487h-379z"/><glyph unicode="’" horiz-adv-x="782" d="M76 893l252 487h379l-322-487h-309z"/><glyph unicode="‚" horiz-adv-x="782" d="M76-221l252 487h379l-322-487h-309z"/><glyph unicode="“" horiz-adv-x="1269" d="M76 1380h379l252-487h-310zm487 0h379l252-487h-309z"/><glyph unicode="”" horiz-adv-x="1269" d="M76 893l252 487h379l-322-487h-309zm487 0l252 487h379l-322-487h-309z"/><glyph unicode="„" horiz-adv-x="1275" d="M76-221l252 487h379l-322-487h-309zm493 0l252 487h379l-321-487h-310z"/><glyph unicode="•" horiz-adv-x="792" d="M96 608q0 109 87 186.5t212 77.5q126 0 213.5-77.5t87.5-186.5q0-112-87-188t-214-76q-126 0-212.5 76t-86.5 188z"/><glyph unicode="…" horiz-adv-x="1564" d="M96 0v309h371v-309h-371zm502 0v309h369v-309h-369zm504 0v309h366v-309h-366z"/><glyph horiz-adv-x="392"/><glyph unicode="‹" horiz-adv-x="774" d="M96 666l269 475h313l-272-475 272-476h-313z"/><glyph unicode="›" horiz-adv-x="774" d="M96 190l273 476-273 475h314l268-475-268-476h-314z"/><glyph horiz-adv-x="491"/><glyph unicode="€" horiz-adv-x="1437" d="M35 723l106 180h162q72 209 245.5 343t420.5 134q226 0 393-112l-115-224q-131 66-239 66-112 0-194.5-60t-127.5-147h514l-106-180h-463q-9-48-8.5-56t8.5-42h432l-109-183h-254q49-80 128-132t180-52q34 0 52.5 1t70.5 17 106 48l111-232q-110-56-194-81t-185-25q-250 0-422.5 124.5t-235.5 331.5h-268l94 183h131q0 84 2 98h-235z"/><glyph unicode="™" horiz-adv-x="1685" d="M25 1239v141h911l205-598 207 598h213l49-817h-183l-22 535-188-535h-150l-186 533-25-533h-184l41 676h-256v-676h-187v676h-245z"/><glyph unicode="◼" horiz-adv-x="993" d="M0 0v993h993v-993h-993z"/></font>
</defs>
</svg>
